<svg
              width="12089"
              height="7724"
              viewBox="0 0 12089 7724"
              fill="none"
              xmlns="http://www.w3.org/2000/svg"
            >
              <g clip-path="url(#clip0_37_5594)">
                <path
                  d="M7888 0C7298.06 642.405 6142.5 2292.37 6239.78 3753"
                  stroke="url(#paint0_linear_37_5594)"
                  stroke-width="30"
                />
                <path
                  d="M7888 0C7298.06 642.405 6142.5 2292.37 6239.78 3753"
                  stroke="url(#paint1_linear_37_5594)"
                  stroke-width="30"
                />
                <path
                  d="M7061 230C6470.01 872.13 6022.94 2420 6120.38 3880"
                  stroke="url(#paint2_linear_37_5594)"
                  stroke-width="30"
                />
                <path
                  d="M7061 230C6470.01 872.13 6022.94 2420 6120.38 3880"
                  stroke="url(#paint3_linear_37_5594)"
                  stroke-width="30"
                />
                <path
                  d="M6361 215C6107.11 1105.72 5900 3420.23 5900 4149"
                  stroke="url(#paint4_linear_37_5594)"
                  stroke-width="30"
                />
                <path
                  d="M6361 215C6107.11 1105.72 5900 3420.23 5900 4149"
                  stroke="url(#paint5_linear_37_5594)"
                  stroke-width="30"
                />
                <path
                  d="M4096 134C4686.49 775.606 5782.28 2734.19 5684.92 4193"
                  stroke="url(#paint6_linear_37_5594)"
                  stroke-width="30"
                />
                <path
                  d="M4096 134C4686.49 775.606 5782.28 2734.19 5684.92 4193"
                  stroke="url(#paint7_linear_37_5594)"
                  stroke-width="30"
                />
                <path
                  d="M4931 134C5521.5 775.403 5907.35 2861.65 5809.99 4320"
                  stroke="url(#paint8_linear_37_5594)"
                  stroke-width="30"
                />
                <path
                  d="M4931 134C5521.5 775.403 5907.35 2861.65 5809.99 4320"
                  stroke="url(#paint9_linear_37_5594)"
                  stroke-width="30"
                />
                <path
                  d="M5594 172C5852.55 1149.29 5876 3601.4 5876 4401"
                  stroke="url(#paint10_linear_37_5594)"
                  stroke-width="30"
                />
                <path
                  d="M5594 172C5852.55 1149.29 5876 3601.4 5876 4401"
                  stroke="url(#paint11_linear_37_5594)"
                  stroke-width="30"
                />
                <ellipse
                  cx="6104.5"
                  cy="5493"
                  rx="3660.5"
                  ry="2231"
                  fill="url(#paint12_radial_37_5594)"
                />
                <ellipse
                  cx="6104.5"
                  cy="5493"
                  rx="3660.5"
                  ry="2231"
                  fill="url(#paint13_radial_37_5594)"
                />
                <circle
                  cx="5943.5"
                  cy="4804.5"
                  r="1214.5"
                  fill="url(#paint14_linear_37_5594)"
                />
                <circle
                  cx="5943.5"
                  cy="4804.5"
                  r="1214.5"
                  fill="url(#paint15_linear_37_5594)"
                />
                <g filter="url(#filter0_d_37_5594)">
                  <path
                    fill-rule="evenodd"
                    clip-rule="evenodd"
                    d="M6348.29 4508.31H5621.62L5483.84 4319.21H6348.29V4508.31Z"
                    fill="white"
                  />
                </g>
                <path
                  d="M11889 5527.5C11889 5771.29 11727.1 6006.45 11427.5 6222.79C11128.2 6438.89 10694.1 6634.11 10156.3 6798.32C9081 7126.68 7594.54 7330 5952 7330C4309.46 7330 2823 7126.68 1747.68 6798.32C1209.93 6634.11 775.837 6438.89 476.518 6222.79C176.852 6006.45 15 5771.29 15 5527.5C15 5283.71 176.852 5048.55 476.518 4832.21C775.837 4616.11 1209.93 4420.89 1747.68 4256.68C2823 3928.32 4309.46 3725 5952 3725C7594.54 3725 9081 3928.32 10156.3 4256.68C10694.1 4420.89 11128.2 4616.11 11427.5 4832.21C11727.1 5048.55 11889 5283.71 11889 5527.5Z"
                  stroke="url(#paint16_linear_37_5594)"
                  stroke-width="30"
                />
                <path
                  d="M11889 5527.5C11889 5771.29 11727.1 6006.45 11427.5 6222.79C11128.2 6438.89 10694.1 6634.11 10156.3 6798.32C9081 7126.68 7594.54 7330 5952 7330C4309.46 7330 2823 7126.68 1747.68 6798.32C1209.93 6634.11 775.837 6438.89 476.518 6222.79C176.852 6006.45 15 5771.29 15 5527.5C15 5283.71 176.852 5048.55 476.518 4832.21C775.837 4616.11 1209.93 4420.89 1747.68 4256.68C2823 3928.32 4309.46 3725 5952 3725C7594.54 3725 9081 3928.32 10156.3 4256.68C10694.1 4420.89 11128.2 4616.11 11427.5 4832.21C11727.1 5048.55 11889 5283.71 11889 5527.5Z"
                  stroke="url(#paint17_linear_37_5594)"
                  stroke-width="30"
                />
                <path
                  d="M11159 5527.5C11159 5772.23 11018.1 6007.47 10758.7 6223.42C10499.3 6439.31 10123 6634.39 9656.81 6798.52C8724.48 7126.72 7435.49 7330 6011 7330C4586.51 7330 3297.52 7126.72 2365.19 6798.52C1898.95 6634.39 1522.72 6439.31 1263.33 6223.42C1003.86 6007.47 863 5772.23 863 5527.5C863 5282.77 1003.86 5047.53 1263.33 4831.58C1522.72 4615.69 1898.95 4420.61 2365.19 4256.48C3297.52 3928.28 4586.51 3725 6011 3725C7435.49 3725 8724.48 3928.28 9656.81 4256.48C10123 4420.61 10499.3 4615.69 10758.7 4831.58C11018.1 5047.53 11159 5282.77 11159 5527.5Z"
                  stroke="url(#paint18_linear_37_5594)"
                  stroke-width="30"
                />
                <path
                  d="M11159 5527.5C11159 5772.23 11018.1 6007.47 10758.7 6223.42C10499.3 6439.31 10123 6634.39 9656.81 6798.52C8724.48 7126.72 7435.49 7330 6011 7330C4586.51 7330 3297.52 7126.72 2365.19 6798.52C1898.95 6634.39 1522.72 6439.31 1263.33 6223.42C1003.86 6007.47 863 5772.23 863 5527.5C863 5282.77 1003.86 5047.53 1263.33 4831.58C1522.72 4615.69 1898.95 4420.61 2365.19 4256.48C3297.52 3928.28 4586.51 3725 6011 3725C7435.49 3725 8724.48 3928.28 9656.81 4256.48C10123 4420.61 10499.3 4615.69 10758.7 4831.58C11018.1 5047.53 11159 5282.77 11159 5527.5Z"
                  stroke="url(#paint19_linear_37_5594)"
                  stroke-width="30"
                />
                <path
                  d="M10829 5527.5C10829 5772.81 10700.7 6008.15 10465.1 6223.89C10229.6 6439.64 9887.85 6634.62 9464.33 6798.68C8617.37 7126.76 7446.29 7330 6152 7330C4857.71 7330 3686.63 7126.76 2839.67 6798.68C2416.15 6634.62 2074.43 6439.64 1838.85 6223.89C1603.28 6008.15 1475 5772.81 1475 5527.5C1475 5282.19 1603.28 5046.85 1838.85 4831.11C2074.43 4615.36 2416.15 4420.38 2839.67 4256.32C3686.63 3928.24 4857.71 3725 6152 3725C7446.29 3725 8617.37 3928.24 9464.33 4256.32C9887.85 4420.38 10229.6 4615.36 10465.1 4831.11C10700.7 5046.85 10829 5282.19 10829 5527.5Z"
                  stroke="url(#paint20_linear_37_5594)"
                  stroke-width="30"
                />
                <path
                  d="M10829 5527.5C10829 5772.81 10700.7 6008.15 10465.1 6223.89C10229.6 6439.64 9887.85 6634.62 9464.33 6798.68C8617.37 7126.76 7446.29 7330 6152 7330C4857.71 7330 3686.63 7126.76 2839.67 6798.68C2416.15 6634.62 2074.43 6439.64 1838.85 6223.89C1603.28 6008.15 1475 5772.81 1475 5527.5C1475 5282.19 1603.28 5046.85 1838.85 4831.11C2074.43 4615.36 2416.15 4420.38 2839.67 4256.32C3686.63 3928.24 4857.71 3725 6152 3725C7446.29 3725 8617.37 3928.24 9464.33 4256.32C9887.85 4420.38 10229.6 4615.36 10465.1 4831.11C10700.7 5046.85 10829 5282.19 10829 5527.5Z"
                  stroke="url(#paint21_linear_37_5594)"
                  stroke-width="30"
                />
                <path
                  d="M8076.69 4596.11C8076.69 5621.49 7151.73 6452.82 6010.62 6452.82C4869.51 6452.82 3944.55 5621.49 3944.55 4596.11C3944.55 3570.72 4869.51 2739.39 6010.62 2739.39C7151.73 2739.39 8076.69 3570.72 8076.69 4596.11Z"
                  stroke="url(#paint22_linear_37_5594)"
                />
                <path
                  d="M7995.65 5075.6C7995.65 5381.19 7772.84 5657.95 7412.38 5858.34C7051.93 6058.72 6553.95 6182.68 6003.86 6182.68C5453.78 6182.68 4955.8 6058.72 4595.35 5858.34C4234.89 5657.95 4012.08 5381.19 4012.08 5075.6C4012.08 4770.02 4234.89 4493.26 4595.35 4292.87C4955.8 4092.48 5453.78 3968.53 6003.86 3968.53C6553.95 3968.53 7051.93 4092.48 7412.38 4292.87C7772.84 4493.26 7995.65 4770.02 7995.65 5075.6Z"
                  stroke="url(#paint23_linear_37_5594)"
                />
                <path
                  d="M8062.19 4596.11C8062.19 5612.06 7145.22 6438.32 6010.62 6438.32C4876.02 6438.32 3959.05 5612.06 3959.05 4596.11C3959.05 3580.15 4876.02 2753.89 6010.62 2753.89C7145.22 2753.89 8062.19 3580.15 8062.19 4596.11Z"
                  stroke="url(#paint24_linear_37_5594)"
                  stroke-width="30"
                />
                <path
                  d="M7981.15 5075.6C7981.15 5373.54 7763.75 5646.41 7405.33 5845.67C7047.42 6044.64 6551.96 6168.18 6003.86 6168.18C5455.77 6168.18 4960.31 6044.64 4602.4 5845.67C4243.98 5646.41 4026.58 5373.54 4026.58 5075.6C4026.58 4777.67 4243.98 4504.8 4602.4 4305.54C4960.31 4106.57 5455.77 3983.03 6003.86 3983.03C6551.96 3983.03 7047.42 4106.57 7405.33 4305.54C7763.75 4504.8 7981.15 4777.67 7981.15 5075.6Z"
                  stroke="url(#paint25_linear_37_5594)"
                  stroke-width="30"
                />
                <path
                  d="M11522.7 4910.13C11522.7 4889.16 11500.2 4869.28 11465.7 4856.97C11473.7 4815.94 11470.1 4783.29 11454.5 4772.83C11450.7 4770.36 11446.5 4769.12 11442.1 4769.23V4783.6C11444.7 4783.6 11446.7 4784.2 11448.4 4785.29C11456 4790.33 11459.2 4809.48 11456.7 4834.13C11456.1 4840.19 11455.1 4846.58 11453.9 4853.09C11442.3 4849.84 11430.6 4847.49 11418.7 4846.06C11411.7 4834.72 11404 4823.95 11395.7 4813.8C11413.8 4794.26 11430.7 4783.55 11442.2 4783.55V4769.16C11427 4769.16 11407.1 4781.81 11386.9 4803.74C11366.8 4781.96 11346.9 4769.43 11331.7 4769.43V4783.8C11343.1 4783.8 11360.1 4794.46 11378.1 4813.87C11370.4 4823.37 11362.6 4834.13 11355.3 4846.06C11343.4 4847.48 11331.7 4849.85 11320.1 4853.16C11318.9 4846.98 11317.9 4840.74 11317.2 4834.46C11314.6 4809.8 11317.8 4790.65 11325.3 4785.56C11327 4784.4 11329.1 4783.87 11331.7 4783.87V4769.49C11327 4769.49 11322.8 4770.65 11319.2 4773.09C11303.6 4783.55 11300.1 4816.13 11308.1 4857.03C11273.7 4869.43 11251.3 4889.22 11251.3 4910.13C11251.3 4931.09 11273.9 4950.97 11308.4 4963.27C11300.4 5004.31 11303.9 5036.96 11319.5 5047.41C11323.1 5049.86 11327.4 5051.02 11332 5051.02C11347.2 5051.02 11367.1 5038.37 11387.3 5016.44C11407.4 5038.24 11427.3 5050.76 11442.5 5050.76C11446.9 5050.86 11451.2 5049.62 11455 5047.14C11470.6 5036.7 11474.1 5004.13 11466 4963.22C11500.3 4950.9 11522.7 4931.03 11522.7 4910.13ZM11450.7 4867.09C11448.6 4875.72 11446.1 4884.22 11443.2 4892.57C11438.6 4882.09 11433.5 4871.88 11428 4861.99C11435.9 4863.35 11443.5 4865.02 11450.7 4867.09H11450.7ZM11425.4 4935.8C11421.2 4944.23 11416.8 4952.46 11412 4960.45C11395.4 4962.15 11378.7 4962.18 11362.1 4960.51C11352.6 4944.65 11344.3 4927.86 11337.3 4910.32C11344.3 4892.75 11352.6 4875.89 11362 4859.95C11378.6 4858.24 11395.3 4858.21 11411.9 4859.87C11416.5 4867.54 11421 4875.75 11425.3 4884.4C11429.5 4892.84 11433.3 4901.41 11436.8 4910.06C11433.3 4918.82 11429.5 4927.4 11425.4 4935.8V4935.8ZM11443.2 4927.41C11446.2 4936.05 11448.8 4944.7 11450.9 4953.09C11443.6 4955.16 11436 4956.9 11428.1 4958.25C11433.6 4948.27 11438.6 4937.98 11443.2 4927.41V4927.41ZM11387.1 4996.25C11382 4990.05 11376.9 4983.16 11371.8 4975.6C11376.7 4975.86 11381.8 4976.06 11387 4976.06C11392.2 4976.06 11397.3 4975.93 11402.4 4975.6C11397.4 4983.16 11392.2 4990.05 11387.1 4996.25ZM11346 4958.25C11338.4 4956.96 11330.8 4955.26 11323.3 4953.16C11325.3 4944.83 11327.9 4936.25 11330.8 4927.68C11333 4932.82 11335.4 4937.99 11338 4943.16C11340.6 4948.32 11343.3 4953.35 11346 4958.25ZM11386.9 4824C11392 4830.2 11397.2 4837.09 11402.2 4844.65C11397.3 4844.39 11392.2 4844.19 11387 4844.19C11381.8 4844.19 11376.7 4844.32 11371.7 4844.65C11376.6 4837.09 11381.8 4830.2 11386.9 4824ZM11345.9 4862C11340.4 4871.96 11335.4 4882.23 11330.8 4892.77C11327.9 4884.36 11325.3 4875.79 11323.1 4867.09C11330.4 4865.09 11338 4863.35 11345.9 4862ZM11295.9 4942.76C11276.3 4933.03 11263.6 4920.25 11263.6 4910.13C11263.6 4900 11276.3 4887.15 11295.9 4877.49C11300.6 4875.1 11305.8 4872.96 11311.2 4870.97C11314.3 4883.61 11318.5 4896.77 11323.6 4910.26C11318.8 4922.95 11314.7 4936.01 11311.4 4949.34C11306.1 4947.45 11300.9 4945.25 11295.9 4942.76V4942.76ZM11325.6 5034.94C11318.1 5029.93 11314.8 5010.76 11317.4 4986.12C11318 4980.06 11319 4973.66 11320.2 4967.15C11331 4970.25 11342.9 4972.63 11355.3 4974.19C11362.4 4985.53 11370.1 4996.3 11378.4 5006.45C11360.3 5025.99 11343.4 5036.7 11331.9 5036.7C11329.7 5036.73 11327.6 5036.13 11325.6 5034.96V5034.94ZM11456.9 4985.8C11459.5 5010.44 11456.2 5029.6 11448.8 5034.69C11447.1 5035.85 11445 5036.37 11442.4 5036.37C11431 5036.37 11414 5025.73 11395.9 5006.3C11404.2 4996.2 11411.8 4985.45 11418.8 4974.12C11430.6 4972.71 11442.4 4970.34 11454 4967.03C11455.2 4973.54 11456.2 4979.79 11456.9 4985.8V4985.8ZM11478.1 4942.76C11473.4 4945.15 11468.2 4947.29 11462.8 4949.28C11459.4 4935.87 11455.3 4922.75 11450.4 4909.99C11455.5 4896.58 11459.6 4883.49 11462.7 4870.91C11467.9 4872.81 11473.1 4875.01 11478.2 4877.49C11497.8 4887.22 11510.5 4900 11510.5 4910.13C11510.4 4920.25 11497.7 4933.1 11478.1 4942.76V4942.76Z"
                  fill="url(#paint26_linear_37_5594)"
                />
                <path
                  d="M11387 4939.61C11393.7 4939.61 11400.1 4936.5 11404.9 4930.97C11409.6 4925.44 11412.3 4917.94 11412.3 4910.12C11412.3 4902.3 11409.6 4894.8 11404.9 4889.27C11400.1 4883.74 11393.7 4880.63 11387 4880.63C11380.3 4880.63 11373.8 4883.74 11369.1 4889.27C11364.4 4894.8 11361.7 4902.3 11361.7 4910.12C11361.7 4917.94 11364.4 4925.44 11369.1 4930.97C11373.8 4936.5 11380.3 4939.61 11387 4939.61V4939.61Z"
                  fill="url(#paint27_linear_37_5594)"
                />
                <path
                  d="M10572.9 4358H10433.1C10422.5 4358 10414 4367.93 10414 4380.18V4542.82C10414 4555.07 10422.5 4565 10433.1 4565H10572.9C10583.5 4565 10592 4555.07 10592 4542.82V4380.18C10592 4367.93 10583.5 4358 10572.9 4358ZM10510.9 4519.44C10510.9 4539.59 10500.7 4548.78 10485.9 4548.78C10472.5 4548.78 10464.7 4540.74 10460.8 4530.99L10474.4 4521.43C10477 4526.83 10479.4 4531.41 10485.2 4531.41C10490.6 4531.41 10494.1 4528.91 10494.1 4519.16V4453.04H10510.9V4519.44V4519.44ZM10550.4 4548.78C10534.9 4548.78 10524.9 4540.19 10520 4528.91L10533.6 4519.76C10537.2 4526.56 10541.9 4531.59 10550.1 4531.59C10557 4531.59 10561.4 4527.57 10561.4 4521.98C10561.4 4515.33 10556.9 4512.97 10549.2 4509.05L10545.1 4506.97C10533 4501.01 10525 4493.47 10525 4477.63C10525 4463.02 10534.6 4451.94 10549.5 4451.94C10560.1 4451.94 10567.8 4456.23 10573.2 4467.51L10560.2 4477.21C10557.4 4471.25 10554.3 4468.89 10549.4 4468.89C10544.6 4468.89 10541.5 4472.5 10541.5 4477.21C10541.5 4483.03 10544.6 4485.39 10551.8 4489.04L10555.9 4491.12C10570.1 4498.19 10578.1 4505.44 10578.1 4521.71C10578.1 4539.17 10566.3 4548.78 10550.4 4548.78V4548.78Z"
                  fill="url(#paint28_linear_37_5594)"
                />
                <path
                  d="M11981 5780C11977.7 5780 11974.4 5778.91 11971.6 5776.84L11941.7 5754.68C11937.3 5751.52 11939.5 5750.43 11940.9 5749.82C11946.9 5747.21 11948.1 5746.66 11954.4 5742.11C11955.1 5741.62 11956 5741.81 11956.6 5742.35L11979.5 5759.42C11980.4 5760.02 11981.5 5760.02 11982.3 5759.42L12071.6 5694.69C12072.4 5694.08 12072.9 5692.87 12072.9 5691.65V5562.2C12072.9 5560.92 12072.4 5559.77 12071.5 5559.1L11982.3 5494.43C11981.5 5493.83 11980.4 5493.83 11979.5 5494.43L11890.4 5559.16C11889.5 5559.77 11889 5560.98 11889 5562.26V5691.65C11889 5692.87 11889.5 5694.08 11890.4 5694.63L11914.8 5712.36C11928.1 5720.68 11936.2 5710.9 11936.2 5701V5573.25C11936.2 5571.43 11937.4 5570.03 11938.8 5570.03H11950.2C11951.6 5570.03 11952.8 5571.43 11952.8 5573.25V5701.06C11952.8 5723.29 11943.1 5736.04 11926.3 5736.04C11921.2 5736.04 11917.1 5736.04 11905.8 5728.99L11882.4 5712.05C11876.6 5707.86 11873 5700.03 11873 5691.59V5562.2C11873 5553.82 11876.6 5545.92 11882.4 5541.73L11971.6 5477.01C11977.2 5473 11984.7 5473 11990.3 5477.01L12079.6 5541.79C12085.4 5545.98 12089 5553.82 12089 5562.26V5691.65C12089 5700.03 12085.4 5707.86 12079.6 5712.11L11990.3 5776.84C11987.5 5778.91 11984.2 5780 11981 5780ZM12053 5652.43C12053 5628.2 12040 5621.76 12012.6 5617.21C11984.8 5612.59 11982 5610.23 11982 5602.09C11982 5595.35 11984.4 5586.36 12004.9 5586.36C12023.3 5586.36 12030 5591.34 12032.8 5606.89C12033.1 5608.34 12034.1 5609.44 12035.3 5609.44H12046.9C12047.7 5609.44 12048.3 5609.07 12048.8 5608.4C12049.3 5607.74 12049.6 5606.83 12049.5 5605.91C12047.7 5579.14 12033.5 5566.69 12004.9 5566.69C11979.5 5566.69 11964.3 5580.17 11964.3 5602.82C11964.3 5627.35 11979.4 5634.15 12003.8 5637.19C12033.1 5640.77 12035.3 5646.17 12035.3 5653.4C12035.3 5665.91 12027.3 5671.25 12008.5 5671.25C11984.9 5671.25 11979.7 5663.78 11978 5649.03C11977.8 5647.45 11976.7 5646.29 11975.4 5646.29H11963.8C11962.4 5646.29 11961.3 5647.75 11961.3 5649.51C11961.3 5668.4 11969.4 5690.92 12008.6 5690.92C12036.8 5690.86 12053 5676.84 12053 5652.43V5652.43Z"
                  fill="url(#paint29_linear_37_5594)"
                />
                <path
                  fill-rule="evenodd"
                  clip-rule="evenodd"
                  d="M10387.4 6659.35C10364.6 6659.35 10346.4 6681.58 10346.4 6708.82C10346.4 6725.38 10353.1 6740.08 10363.5 6749.06C10358.2 6753.74 10353.8 6759.82 10350.8 6766.81C10347.9 6773.79 10346.3 6781.5 10346.4 6789.3C10346.4 6805.87 10353.1 6820.57 10363.5 6829.54C10358.2 6834.22 10353.8 6840.3 10350.8 6847.29C10347.9 6854.28 10346.3 6861.98 10346.4 6869.78C10346.4 6897.02 10364.6 6919.25 10387.4 6919.25C10410.1 6919.25 10428.4 6897.02 10428.4 6869.78V6827.96C10435.5 6834.94 10444.6 6838.77 10453.9 6838.78C10476.7 6838.77 10494.9 6816.54 10494.9 6789.3C10495 6781.5 10493.4 6773.79 10490.5 6766.8C10487.5 6759.81 10483.1 6753.74 10477.8 6749.06C10483.1 6744.38 10487.5 6738.3 10490.5 6731.32C10493.4 6724.33 10495 6716.62 10494.9 6708.82C10494.9 6681.58 10476.7 6659.35 10453.9 6659.35H10387.4V6659.35ZM10361.8 6708.82C10361.8 6691.59 10373.3 6677.79 10387.4 6677.79H10412.9V6739.85H10387.4C10373.3 6739.85 10361.8 6726.04 10361.8 6708.82V6708.82ZM10453.9 6739.83H10428.4V6677.78H10453.9C10468 6677.78 10479.5 6691.59 10479.5 6708.82C10479.5 6726.04 10468 6739.83 10453.9 6739.83ZM10361.8 6789.3C10361.8 6772.08 10373.3 6758.28 10387.4 6758.28H10413V6820.33H10387.4C10373.3 6820.33 10361.8 6806.52 10361.8 6789.3H10361.8ZM10428.4 6789.3C10428.4 6772.08 10439.9 6758.28 10454 6758.28C10468 6758.28 10479.5 6772.07 10479.5 6789.3C10479.5 6806.52 10468 6820.33 10454 6820.33C10439.9 6820.33 10428.4 6806.53 10428.4 6789.3H10428.4ZM10361.8 6869.78C10361.8 6852.57 10373.3 6838.77 10387.4 6838.77H10413V6869.78C10413 6887.01 10401.4 6900.81 10387.4 6900.81C10373.3 6900.81 10361.8 6887.01 10361.8 6869.78Z"
                  fill="url(#paint30_linear_37_5594)"
                />
                <path
                  d="M11309.9 5745.76H11187.3C11170.4 5745.76 11156.8 5761.67 11156.8 5781.3V5918.94C11156.8 5938.57 11170.4 5954.48 11187.3 5954.48H11309.9C11326.7 5954.48 11340.4 5938.57 11340.4 5918.94V5781.3C11340.4 5761.67 11326.7 5745.76 11309.9 5745.76Z"
                  fill="url(#paint31_linear_37_5594)"
                />
                <path
                  d="M11253.3 5800.66L11230.4 5844.75L11254.9 5891.56C11255 5891.89 11255.1 5892.27 11255 5892.64C11255 5892.8 11254.9 5892.83 11254.8 5892.84L11254.6 5892.84L11254.5 5892.83C11254.4 5892.83 11254.3 5892.84 11254.1 5892.86H11236.5L11236.1 5892.85C11235.2 5892.82 11234.5 5892.66 11234.1 5891.85C11232.4 5888.14 11230.8 5884.43 11229.1 5880.72C11227.7 5877.42 11226.2 5874.13 11224.6 5870.88L11223.9 5869.45C11222.1 5865.59 11220.2 5861.71 11218.4 5857.81H11218.3C11216.7 5861.67 11215 5865.5 11213.2 5869.3C11211.4 5873.13 11209.7 5876.94 11208 5880.72C11206.2 5884.5 11204.5 5888.26 11202.7 5891.99C11202.4 5892.75 11201.9 5892.91 11201.2 5892.94L11200.9 5892.94H11184.1L11184 5892.95L11183.8 5892.97C11183.6 5892.98 11183.5 5892.95 11183.5 5892.71C11183.5 5892.36 11183.5 5892 11183.7 5891.71L11207.5 5846.18L11184.3 5800.52C11184.1 5800.13 11184 5799.82 11184.2 5799.58C11184.3 5799.46 11184.4 5799.36 11184.5 5799.3C11184.7 5799.24 11184.8 5799.21 11184.9 5799.22H11202.3C11202.7 5799.2 11203.1 5799.27 11203.4 5799.44C11203.7 5799.63 11204 5799.9 11204.1 5800.23C11205.6 5804.06 11207.3 5807.89 11209.1 5811.72C11210.9 5815.52 11212.7 5819.3 11214.6 5823.06C11216.4 5826.76 11218.1 5830.55 11219.7 5834.41H11219.8C11221.4 5830.55 11223.1 5826.72 11224.8 5822.92C11226.5 5819.19 11228.2 5815.43 11229.9 5811.65C11231.7 5807.91 11233.4 5804.15 11235.1 5800.37C11235.2 5800.02 11235.3 5799.7 11235.6 5799.44C11235.9 5799.26 11236.2 5799.18 11236.5 5799.22H11252.7C11252.8 5799.18 11253 5799.19 11253.1 5799.26C11253.3 5799.33 11253.4 5799.45 11253.4 5799.61C11253.5 5799.76 11253.6 5799.94 11253.5 5800.12C11253.5 5800.3 11253.5 5800.46 11253.3 5800.59L11253.3 5800.66L11253.3 5800.66ZM11289.5 5894.71L11288.6 5894.72C11283 5894.82 11277.3 5893.45 11272.2 5890.7C11267.4 5888.11 11263.4 5883.88 11260.7 5878.57C11258 5873.3 11256.6 5866.74 11256.5 5858.89L11256.5 5858.25C11256.4 5851.65 11257.9 5845.17 11260.7 5839.43C11263.5 5833.76 11267.5 5829.08 11272.4 5825.91L11272.9 5825.65C11278.2 5822.2 11284.6 5820.48 11292.2 5820.48L11292.5 5820.48L11292.9 5820.5L11293.3 5820.52L11293.8 5820.55L11294.6 5820.61L11295.5 5820.7L11296.1 5820.76V5792.47C11296.1 5791.8 11296.4 5791.47 11296.9 5791.47H11312.4C11312.5 5791.45 11312.6 5791.46 11312.7 5791.5C11312.8 5791.54 11312.9 5791.6 11312.9 5791.68C11313 5791.77 11313.1 5791.87 11313.1 5791.98C11313.1 5792.09 11313.1 5792.21 11313.1 5792.33V5877.2C11313.1 5878.63 11313.2 5880.16 11313.3 5881.8L11313.5 5885.53L11313.6 5887.68C11313.6 5887.98 11313.6 5888.28 11313.4 5888.54C11313.3 5888.79 11313.1 5889 11312.9 5889.12C11308.9 5891.07 11304.7 5892.51 11300.4 5893.43C11296.8 5894.21 11293.2 5894.64 11289.5 5894.71V5894.71ZM11296.1 5876.91V5837.71C11295.5 5837.5 11294.8 5837.36 11294.1 5837.28C11293.3 5837.18 11292.4 5837.13 11291.6 5837.14C11288.6 5837.1 11285.6 5837.89 11283 5839.43C11280.4 5840.95 11278.1 5843.22 11276.5 5846.04C11274.9 5848.81 11274 5852.43 11274 5856.9L11274 5857.38C11273.9 5860.51 11274.3 5863.63 11275.3 5866.57C11276 5868.95 11277.2 5871.1 11278.7 5872.89C11280.2 5874.54 11281.9 5875.77 11283.9 5876.48C11285.9 5877.26 11288.1 5877.65 11290.2 5877.63C11291.4 5877.63 11292.4 5877.58 11293.4 5877.49C11294.2 5877.42 11295 5877.27 11295.8 5877.04L11296.1 5876.91V5876.91Z"
                  fill="black"
                />
                <path
                  d="M11309.9 5745.76H11187.3C11170.4 5745.76 11156.8 5761.67 11156.8 5781.3V5918.94C11156.8 5938.57 11170.4 5954.48 11187.3 5954.48H11309.9C11326.7 5954.48 11340.4 5938.57 11340.4 5918.94V5781.3C11340.4 5761.67 11326.7 5745.76 11309.9 5745.76Z"
                  fill="url(#paint32_linear_37_5594)"
                />
                <path
                  d="M11253.3 5800.66L11230.4 5844.75L11254.9 5891.56C11255 5891.89 11255.1 5892.27 11255 5892.64C11255 5892.8 11254.9 5892.83 11254.8 5892.84L11254.6 5892.84L11254.5 5892.83C11254.4 5892.83 11254.3 5892.84 11254.1 5892.86H11236.5L11236.1 5892.85C11235.2 5892.82 11234.5 5892.66 11234.1 5891.85C11232.4 5888.14 11230.8 5884.43 11229.1 5880.72C11227.7 5877.42 11226.2 5874.13 11224.6 5870.88L11223.9 5869.45C11222.1 5865.59 11220.2 5861.71 11218.4 5857.81H11218.3C11216.7 5861.67 11215 5865.5 11213.2 5869.3C11211.4 5873.13 11209.7 5876.94 11208 5880.72C11206.2 5884.5 11204.5 5888.26 11202.7 5891.99C11202.4 5892.75 11201.9 5892.91 11201.2 5892.94L11200.9 5892.94H11184.1L11184 5892.95L11183.8 5892.97C11183.6 5892.98 11183.5 5892.95 11183.5 5892.71C11183.5 5892.36 11183.5 5892 11183.7 5891.71L11207.5 5846.18L11184.3 5800.52C11184.1 5800.13 11184 5799.82 11184.2 5799.58C11184.3 5799.46 11184.4 5799.36 11184.5 5799.3C11184.7 5799.24 11184.8 5799.21 11184.9 5799.22H11202.3C11202.7 5799.2 11203.1 5799.27 11203.4 5799.44C11203.7 5799.63 11204 5799.9 11204.1 5800.23C11205.6 5804.06 11207.3 5807.89 11209.1 5811.72C11210.9 5815.52 11212.7 5819.3 11214.6 5823.06C11216.4 5826.76 11218.1 5830.55 11219.7 5834.41H11219.8C11221.4 5830.55 11223.1 5826.72 11224.8 5822.92C11226.5 5819.19 11228.2 5815.43 11229.9 5811.65C11231.7 5807.91 11233.4 5804.15 11235.1 5800.37C11235.2 5800.02 11235.3 5799.7 11235.6 5799.44C11235.9 5799.26 11236.2 5799.18 11236.5 5799.22H11252.7C11252.8 5799.18 11253 5799.19 11253.1 5799.26C11253.3 5799.33 11253.4 5799.45 11253.4 5799.61C11253.5 5799.76 11253.6 5799.94 11253.5 5800.12C11253.5 5800.3 11253.5 5800.46 11253.3 5800.59L11253.3 5800.66L11253.3 5800.66ZM11289.5 5894.71L11288.6 5894.72C11283 5894.82 11277.3 5893.45 11272.2 5890.7C11267.4 5888.11 11263.4 5883.88 11260.7 5878.57C11258 5873.3 11256.6 5866.74 11256.5 5858.89L11256.5 5858.25C11256.4 5851.65 11257.9 5845.17 11260.7 5839.43C11263.5 5833.76 11267.5 5829.08 11272.4 5825.91L11272.9 5825.65C11278.2 5822.2 11284.6 5820.48 11292.2 5820.48L11292.5 5820.48L11292.9 5820.5L11293.3 5820.52L11293.8 5820.55L11294.6 5820.61L11295.5 5820.7L11296.1 5820.76V5792.47C11296.1 5791.8 11296.4 5791.47 11296.9 5791.47H11312.4C11312.5 5791.45 11312.6 5791.46 11312.7 5791.5C11312.8 5791.54 11312.9 5791.6 11312.9 5791.68C11313 5791.77 11313.1 5791.87 11313.1 5791.98C11313.1 5792.09 11313.1 5792.21 11313.1 5792.33V5877.2C11313.1 5878.63 11313.2 5880.16 11313.3 5881.8L11313.5 5885.53L11313.6 5887.68C11313.6 5887.98 11313.6 5888.28 11313.4 5888.54C11313.3 5888.79 11313.1 5889 11312.9 5889.12C11308.9 5891.07 11304.7 5892.51 11300.4 5893.43C11296.8 5894.21 11293.2 5894.64 11289.5 5894.71V5894.71ZM11296.1 5876.91V5837.71C11295.5 5837.5 11294.8 5837.36 11294.1 5837.28C11293.3 5837.18 11292.4 5837.13 11291.6 5837.14C11288.6 5837.1 11285.6 5837.89 11283 5839.43C11280.4 5840.95 11278.1 5843.22 11276.5 5846.04C11274.9 5848.81 11274 5852.43 11274 5856.9L11274 5857.38C11273.9 5860.51 11274.3 5863.63 11275.3 5866.57C11276 5868.95 11277.2 5871.1 11278.7 5872.89C11280.2 5874.54 11281.9 5875.77 11283.9 5876.48C11285.9 5877.26 11288.1 5877.65 11290.2 5877.63C11291.4 5877.63 11292.4 5877.58 11293.4 5877.49C11294.2 5877.42 11295 5877.27 11295.8 5877.04L11296.1 5876.91V5876.91Z"
                  fill="black"
                />
                <path
                  d="M9773.99 4541.33C9788.43 4531.66 9802.82 4521.91 9817.31 4512.35C9831.05 4503.26 9847.23 4511.64 9850.35 4529.32C9852.15 4539.54 9848.23 4550.59 9840.32 4555.97C9814.36 4573.61 9788.37 4591.17 9762.25 4608.47C9754.17 4613.83 9745.84 4612.84 9738.47 4606.28C9730.99 4599.62 9728.63 4590.43 9730.38 4579.74C9732.39 4571.6 9736.97 4566.15 9743.23 4562.08C9753.57 4555.35 9763.75 4548.26 9773.99 4541.33"
                  fill="url(#paint33_linear_37_5594)"
                />
                <path
                  d="M9784.59 4534.3C9770.19 4524.56 9755.76 4514.89 9741.41 4505.05C9727.79 4495.71 9725.92 4475.18 9737.49 4463.2C9744.18 4456.26 9754.34 4454.69 9762.3 4460C9788.37 4477.39 9814.42 4494.86 9840.32 4512.59C9848.34 4518.08 9851.77 4526.98 9850.59 4537.7C9849.38 4548.59 9843.74 4555.57 9834.92 4559.14C9827.87 4561.19 9821.54 4559.28 9815.38 4555C9805.21 4547.92 9794.86 4541.18 9784.59 4534.3"
                  fill="url(#paint34_linear_37_5594)"
                />
                <path
                  d="M9653.36 4527.41C9644.12 4533.53 9634.88 4539.64 9625.65 4545.78C9620.25 4549.38 9614.91 4553.09 9609.48 4556.62C9598.55 4563.74 9585.56 4559.57 9579.36 4547.03C9573.44 4535.07 9576.84 4519.56 9587.37 4512.39C9613.12 4494.86 9638.93 4477.47 9664.84 4460.26C9672.78 4454.99 9681.03 4455.65 9688.38 4461.96C9696.13 4468.62 9698.67 4477.98 9696.93 4488.97C9695.85 4491.62 9695.2 4494.74 9693.58 4496.83C9690.95 4500.24 9687.96 4503.5 9684.64 4505.89C9674.33 4513.3 9663.8 4520.27 9653.36 4527.41"
                  fill="url(#paint35_linear_37_5594)"
                />
                <path
                  d="M9642.77 4534.27C9651.93 4540.54 9661.09 4546.82 9670.27 4553.07C9675.63 4556.73 9681.06 4560.27 9686.4 4563.98C9697.15 4571.47 9700.55 4586.67 9694.34 4599.2C9688.41 4611.16 9675.19 4615.48 9664.61 4608.43C9638.72 4591.19 9612.89 4573.82 9587.16 4556.25C9579.27 4550.87 9575.64 4542.21 9576.65 4531.63C9577.72 4520.47 9583.41 4513.23 9592.43 4509.49C9594.95 4509.26 9597.58 4508.35 9599.95 4508.94C9603.79 4509.89 9607.71 4511.28 9611.15 4513.44C9621.8 4520.14 9632.24 4527.29 9642.77 4534.27"
                  fill="url(#paint36_linear_37_5594)"
                />
                <path
                  fill-rule="evenodd"
                  clip-rule="evenodd"
                  d="M1717.5 5334C1665.86 5334 1624 5387.06 1624 5452.5C1624 5517.94 1665.86 5571 1717.5 5571C1769.14 5571 1811 5517.94 1811 5452.5C1811 5387.06 1769.14 5334 1717.5 5334ZM1718.59 5521.8C1688.45 5521.8 1664.05 5490.8 1664.05 5452.5C1664.05 5414.2 1688.45 5383.2 1718.59 5383.2C1733.32 5383.2 1745.63 5390.08 1755.07 5401.26L1739.69 5420.79V5420.75C1733.96 5413.82 1726.7 5410.26 1718.59 5410.26C1700.59 5410.26 1685.97 5429.58 1685.97 5452.46C1685.97 5475.32 1700.59 5494.7 1718.59 5494.7C1734.92 5494.7 1746.03 5482.83 1748.32 5466.53H1718.59V5439.5H1769.9C1770.58 5444.15 1770.95 5448.98 1770.95 5454.06C1770.95 5493.66 1750.09 5521.8 1718.59 5521.8V5521.8Z"
                  fill="url(#paint37_linear_37_5594)"
                />
                <path
                  d="M421.578 6263.89H447.097V6276.55H432.249V6289.22H447.097V6301.88H421.578V6263.89ZM452.195 6263.89H477.724V6274.91H462.876V6277.11H477.724V6302.43H452.195V6290.87H467.043V6288.67H452.195V6263.89ZM482.832 6263.89H508.341V6274.91H493.493V6277.11H508.341V6302.43H482.832V6290.87H497.68V6288.67H482.832V6263.89Z"
                  fill="url(#paint38_linear_37_5594)"
                />
                <path
                  fill-rule="evenodd"
                  clip-rule="evenodd"
                  d="M465.903 6538.51L398.164 6516.59L378.195 6319.29H553.786L533.828 6516.57L465.903 6538.51ZM417.674 6408.6L419.537 6432.8H491.5L489.091 6464.17L465.932 6471.47H465.913L442.793 6464.2L441.311 6444.9H420.464L423.371 6482.9L465.903 6496.65L508.503 6482.9L513.693 6415.09L514.2 6408.6L517.946 6359.61H413.938L415.83 6383.82H495.197L493.305 6408.6H417.674V6408.6Z"
                  fill="url(#paint39_linear_37_5594)"
                />
                <path
                  d="M2154.77 3876.51H2303.34V4058.53H2154.77V3876.51ZM2148 4067.04H2310.08V3868H2148V4067.04ZM2254.17 3938.94C2254.17 3938.26 2254.37 3937.92 2254.98 3937.92H2265.58C2266.12 3937.92 2266.39 3938.17 2266.39 3938.94V4006.05C2266.39 4006.73 2266.26 4007.07 2265.58 4007.07H2255.12C2254.44 4007.07 2254.24 4006.65 2254.24 4005.97V3938.94H2254.17H2254.17ZM2253.42 3919.63C2253.42 3917.33 2254.15 3915.13 2255.44 3913.5C2256.73 3911.87 2258.49 3910.96 2260.31 3910.96C2262.14 3910.96 2263.89 3911.87 2265.18 3913.5C2266.48 3915.13 2267.2 3917.33 2267.2 3919.63C2267.27 3920.81 2267.13 3921.99 2266.8 3923.09C2266.47 3924.19 2265.95 3925.19 2265.28 3926.02C2264.62 3926.84 2263.81 3927.47 2262.93 3927.87C2262.05 3928.27 2261.11 3928.42 2260.18 3928.31C2259.27 3928.38 2258.35 3928.21 2257.5 3927.79C2256.64 3927.38 2255.87 3926.74 2255.23 3925.92C2254.59 3925.09 2254.1 3924.11 2253.79 3923.02C2253.48 3921.94 2253.36 3920.78 2253.44 3919.63H2253.42ZM2223.03 3966.93C2221.14 3957.45 2216.67 3936.91 2215 3926.95H2214.87C2213.45 3936.91 2209.87 3953.75 2207.03 3966.93H2223.03ZM2204.26 3980.71L2198.92 4006.23C2198.79 4006.91 2198.59 4007.08 2197.91 4007.08H2187.99C2187.32 4007.08 2187.18 4006.83 2187.32 4005.8L2206.49 3921.23C2206.96 3918.92 2207.19 3916.55 2207.17 3914.17C2207.17 3913.58 2207.37 3913.32 2207.71 3913.32H2221.89C2222.37 3913.32 2222.57 3913.49 2222.7 3914.17L2244.18 4005.95C2244.31 4006.63 2244.18 4007.06 2243.64 4007.06H2232.43C2231.89 4007.06 2231.55 4006.89 2231.42 4006.33L2225.88 3980.72H2204.27L2204.26 3980.71Z"
                  fill="url(#paint40_linear_37_5594)"
                />
                <path
                  fill-rule="evenodd"
                  clip-rule="evenodd"
                  d="M1107.57 4597.01C1107.57 4592.54 1109.07 4588.25 1111.73 4585.08C1114.39 4581.92 1118 4580.14 1121.76 4580.14H1263.21C1265.07 4580.14 1266.92 4580.57 1268.64 4581.42C1270.37 4582.27 1271.93 4583.51 1273.25 4585.08C1274.57 4586.64 1275.62 4588.5 1276.33 4590.55C1277.05 4592.6 1277.41 4594.79 1277.41 4597.01V4765.13C1277.41 4767.35 1277.05 4769.54 1276.34 4771.59C1275.62 4773.64 1274.58 4775.5 1273.26 4777.07C1271.94 4778.64 1270.37 4779.88 1268.65 4780.73C1266.93 4781.58 1265.08 4782.02 1263.21 4782.01H1121.76C1119.9 4782.01 1118.05 4781.58 1116.33 4780.73C1114.61 4779.88 1113.05 4778.64 1111.73 4777.07C1110.41 4775.5 1109.36 4773.64 1108.65 4771.6C1107.94 4769.55 1107.57 4767.36 1107.57 4765.14V4597.01ZM1174.8 4657.11H1197.8V4670.84C1201.12 4662.95 1209.61 4655.85 1222.37 4655.85C1246.83 4655.85 1252.63 4671.56 1252.63 4700.4V4753.83H1227.87V4706.97C1227.87 4690.55 1224.55 4681.28 1216.12 4681.28C1204.43 4681.28 1199.56 4691.27 1199.56 4706.97V4753.83H1174.8V4657.11ZM1132.34 4752.57H1157.1V4655.85H1132.34V4752.56V4752.57ZM1160.65 4624.3C1160.7 4626.82 1160.32 4629.33 1159.54 4631.67C1158.76 4634.01 1157.59 4636.15 1156.11 4637.95C1154.63 4639.76 1152.86 4641.19 1150.9 4642.16C1148.95 4643.14 1146.85 4643.65 1144.73 4643.65C1142.61 4643.65 1140.51 4643.14 1138.55 4642.16C1136.6 4641.19 1134.82 4639.76 1133.34 4637.95C1131.86 4636.15 1130.69 4634.01 1129.91 4631.67C1129.13 4629.33 1128.76 4626.82 1128.8 4624.3C1128.9 4619.35 1130.61 4614.64 1133.59 4611.18C1136.57 4607.72 1140.56 4605.79 1144.73 4605.79C1148.89 4605.79 1152.89 4607.72 1155.86 4611.18C1158.84 4614.64 1160.56 4619.35 1160.65 4624.3V4624.3Z"
                  fill="url(#paint41_linear_37_5594)"
                />
                <path
                  d="M1901.16 6391.59L1921.12 6423.95L2022.19 6391.59M1796.14 6643.61L1850.82 6581.85L1817.92 6541.04M1892.87 6391.59L1863.65 6422L1912.8 6424.12M1779.29 6391.6L1789.77 6416.45L1847.62 6420.6M1810.25 6520.47L1852.98 6428.37L1728.89 6420.59M1815.22 6526.28L1855.59 6576.38L1900.11 6525.97L1913.91 6432.04L1859.67 6428.82L1815.22 6526.28Z"
                  fill="url(#paint42_linear_37_5594)"
                />
                <path
                  d="M6220.11 5376.7C6264.8 5344.06 6294.78 5319.7 6317.7 5275.69C6348.96 5215.67 6348 5120.28 6348 5120.28V4550H6107.33V5120.28C6107.33 5120.28 6101.74 5205.48 6055.15 5238.56C6011.35 5269.67 5968.05 5271.17 5908.45 5270.94C5849.9 5270.71 5808.02 5268.75 5764.55 5238.56C5717.22 5205.69 5709.57 5120.28 5709.57 5120.28V4969.61H5484.07V5205.32C5484.07 5205.32 5483.91 5212.56 5484.07 5217.19C5486.36 5285.25 5512.63 5328.81 5575.51 5376.7C5625.8 5415.01 5631.34 5417.99 5698.37 5435.42C5772.8 5454.77 5818.71 5457.34 5897.25 5458.73C5967.08 5459.96 5990.95 5457.45 6057.98 5442.32C6126.63 5426.83 6168.22 5414.6 6220.11 5376.7Z"
                  fill="white"
                />
              </g>
              <defs>
                <filter
                  id="filter0_d_37_5594"
                  x="5469.84"
                  y="4306.21"
                  width="892.449"
                  height="217.098"
                  filterUnits="userSpaceOnUse"
                  color-interpolation-filters="sRGB"
                >
                  <feFlood flood-opacity="0" result="BackgroundImageFix" />
                  <feColorMatrix
                    in="SourceAlpha"
                    type="matrix"
                    values="0 0 0 0 0 0 0 0 0 0 0 0 0 0 0 0 0 0 127 0"
                    result="hardAlpha"
                  />
                  <feOffset dy="1" />
                  <feGaussianBlur stdDeviation="7" />
                  <feComposite in2="hardAlpha" operator="out" />
                  <feColorMatrix
                    type="matrix"
                    values="0 0 0 0 1 0 0 0 0 1 0 0 0 0 1 0 0 0 0.55 0"
                  />
                  <feBlend
                    mode="normal"
                    in2="BackgroundImageFix"
                    result="effect1_dropShadow_37_5594"
                  />
                  <feBlend
                    mode="normal"
                    in="SourceGraphic"
                    in2="effect1_dropShadow_37_5594"
                    result="shape"
                  />
                </filter>
                <linearGradient
                  id="paint0_linear_37_5594"
                  x1="7061"
                  y1="0"
                  x2="7061"
                  y2="3753"
                  gradientUnits="userSpaceOnUse"
                >
                  <stop stop-color="#3D1768" />
                  <stop offset="1" stop-color="#3D1768" stop-opacity="0" />
                </linearGradient>
                <linearGradient
                  id="paint1_linear_37_5594"
                  x1="7061"
                  y1="0"
                  x2="7061"
                  y2="3753"
                  gradientUnits="userSpaceOnUse"
                >
                  <stop stop-color="#3D1768" />
                  <stop offset="1" stop-color="#3D1768" stop-opacity="0" />
                </linearGradient>
                <linearGradient
                  id="paint2_linear_37_5594"
                  x1="6584"
                  y1="230"
                  x2="6584"
                  y2="3880"
                  gradientUnits="userSpaceOnUse"
                >
                  <stop stop-color="#3D1768" />
                  <stop offset="1" stop-color="#3D1768" stop-opacity="0" />
                </linearGradient>
                <linearGradient
                  id="paint3_linear_37_5594"
                  x1="6584"
                  y1="230"
                  x2="6584"
                  y2="3880"
                  gradientUnits="userSpaceOnUse"
                >
                  <stop stop-color="#3D1768" />
                  <stop offset="1" stop-color="#3D1768" stop-opacity="0" />
                </linearGradient>
                <linearGradient
                  id="paint4_linear_37_5594"
                  x1="6023.6"
                  y1="444.427"
                  x2="6023.6"
                  y2="4101.77"
                  gradientUnits="userSpaceOnUse"
                >
                  <stop stop-color="#3D1768" />
                  <stop offset="1" stop-color="#3D1768" stop-opacity="0" />
                </linearGradient>
                <linearGradient
                  id="paint5_linear_37_5594"
                  x1="6023.6"
                  y1="444.427"
                  x2="6023.6"
                  y2="4101.77"
                  gradientUnits="userSpaceOnUse"
                >
                  <stop stop-color="#3D1768" />
                  <stop offset="1" stop-color="#3D1768" stop-opacity="0" />
                </linearGradient>
                <linearGradient
                  id="paint6_linear_37_5594"
                  x1="4958.1"
                  y1="471.687"
                  x2="4958.1"
                  y2="4193"
                  gradientUnits="userSpaceOnUse"
                >
                  <stop stop-color="#3D1768" />
                  <stop offset="1" stop-color="#3D1768" stop-opacity="0" />
                </linearGradient>
                <linearGradient
                  id="paint7_linear_37_5594"
                  x1="4958.1"
                  y1="471.687"
                  x2="4958.1"
                  y2="4193"
                  gradientUnits="userSpaceOnUse"
                >
                  <stop stop-color="#3D1768" />
                  <stop offset="1" stop-color="#3D1768" stop-opacity="0" />
                </linearGradient>
                <linearGradient
                  id="paint8_linear_37_5594"
                  x1="5423.54"
                  y1="444.574"
                  x2="5423.54"
                  y2="4320"
                  gradientUnits="userSpaceOnUse"
                >
                  <stop stop-color="#3D1768" />
                  <stop offset="1" stop-color="#3D1768" stop-opacity="0" />
                </linearGradient>
                <linearGradient
                  id="paint9_linear_37_5594"
                  x1="5423.54"
                  y1="444.574"
                  x2="5423.54"
                  y2="4320"
                  gradientUnits="userSpaceOnUse"
                >
                  <stop stop-color="#3D1768" />
                  <stop offset="1" stop-color="#3D1768" stop-opacity="0" />
                </linearGradient>
                <linearGradient
                  id="paint10_linear_37_5594"
                  x1="5902.86"
                  y1="523.291"
                  x2="5902.86"
                  y2="4536.11"
                  gradientUnits="userSpaceOnUse"
                >
                  <stop stop-color="#3D1768" />
                  <stop offset="1" stop-color="#3D1768" stop-opacity="0" />
                </linearGradient>
                <linearGradient
                  id="paint11_linear_37_5594"
                  x1="5902.86"
                  y1="523.291"
                  x2="5902.86"
                  y2="4536.11"
                  gradientUnits="userSpaceOnUse"
                >
                  <stop stop-color="#3D1768" />
                  <stop offset="1" stop-color="#3D1768" stop-opacity="0" />
                </linearGradient>
                <radialGradient
                  id="paint12_radial_37_5594"
                  cx="0"
                  cy="0"
                  r="1"
                  gradientUnits="userSpaceOnUse"
                  gradientTransform="translate(6104.5 5493) rotate(90) scale(2231 3660.5)"
                >
                  <stop stop-color="#763CAC" />
                  <stop offset="1" stop-color="#320F85" stop-opacity="0" />
                </radialGradient>
                <radialGradient
                  id="paint13_radial_37_5594"
                  cx="0"
                  cy="0"
                  r="1"
                  gradientUnits="userSpaceOnUse"
                  gradientTransform="translate(6104.5 5493) rotate(90) scale(2231 3660.5)"
                >
                  <stop stop-color="#763CAC" />
                  <stop offset="1" stop-color="#320F85" stop-opacity="0" />
                </radialGradient>
                <linearGradient
                  id="paint14_linear_37_5594"
                  x1="5943.5"
                  y1="3590"
                  x2="5943.5"
                  y2="6019"
                  gradientUnits="userSpaceOnUse"
                >
                  <stop stop-color="#301080" stop-opacity="0.6" />
                  <stop offset="1" stop-color="#7840AD" stop-opacity="0.36" />
                </linearGradient>
                <linearGradient
                  id="paint15_linear_37_5594"
                  x1="5943.5"
                  y1="3590"
                  x2="5943.5"
                  y2="6019"
                  gradientUnits="userSpaceOnUse"
                >
                  <stop stop-color="#301080" stop-opacity="0.6" />
                  <stop offset="1" stop-color="#7840AD" stop-opacity="0.36" />
                </linearGradient>
                <linearGradient
                  id="paint16_linear_37_5594"
                  x1="5952"
                  y1="3710"
                  x2="5952"
                  y2="7345"
                  gradientUnits="userSpaceOnUse"
                >
                  <stop stop-opacity="0" />
                  <stop offset="0.479167" stop-color="#763CAC" />
                </linearGradient>
                <linearGradient
                  id="paint17_linear_37_5594"
                  x1="5952"
                  y1="3710"
                  x2="5952"
                  y2="7345"
                  gradientUnits="userSpaceOnUse"
                >
                  <stop stop-opacity="0" />
                  <stop offset="0.479167" stop-color="#763CAC" />
                </linearGradient>
                <linearGradient
                  id="paint18_linear_37_5594"
                  x1="6011"
                  y1="3710"
                  x2="6011"
                  y2="7345"
                  gradientUnits="userSpaceOnUse"
                >
                  <stop stop-opacity="0" />
                  <stop offset="0.479167" stop-color="#763CAC" />
                </linearGradient>
                <linearGradient
                  id="paint19_linear_37_5594"
                  x1="6011"
                  y1="3710"
                  x2="6011"
                  y2="7345"
                  gradientUnits="userSpaceOnUse"
                >
                  <stop stop-opacity="0" />
                  <stop offset="0.479167" stop-color="#763CAC" />
                </linearGradient>
                <linearGradient
                  id="paint20_linear_37_5594"
                  x1="6152"
                  y1="3710"
                  x2="6152"
                  y2="7345"
                  gradientUnits="userSpaceOnUse"
                >
                  <stop stop-opacity="0" />
                  <stop offset="0.479167" stop-color="#763CAC" />
                </linearGradient>
                <linearGradient
                  id="paint21_linear_37_5594"
                  x1="6152"
                  y1="3710"
                  x2="6152"
                  y2="7345"
                  gradientUnits="userSpaceOnUse"
                >
                  <stop stop-opacity="0" />
                  <stop offset="0.479167" stop-color="#763CAC" />
                </linearGradient>
                <linearGradient
                  id="paint22_linear_37_5594"
                  x1="6010.62"
                  y1="2738.89"
                  x2="6010.62"
                  y2="6453.32"
                  gradientUnits="userSpaceOnUse"
                >
                  <stop offset="0.197917" stop-opacity="0" />
                  <stop offset="1" stop-color="#763CAC" />
                </linearGradient>
                <linearGradient
                  id="paint23_linear_37_5594"
                  x1="6003.86"
                  y1="3968.03"
                  x2="6003.86"
                  y2="6183.18"
                  gradientUnits="userSpaceOnUse"
                >
                  <stop offset="0.197917" stop-opacity="0" />
                  <stop offset="1" stop-color="#763CAC" />
                </linearGradient>
                <linearGradient
                  id="paint24_linear_37_5594"
                  x1="6010.62"
                  y1="2738.89"
                  x2="6010.62"
                  y2="6453.32"
                  gradientUnits="userSpaceOnUse"
                >
                  <stop offset="0.197917" stop-opacity="0" />
                  <stop offset="1" stop-color="#763CAC" />
                </linearGradient>
                <linearGradient
                  id="paint25_linear_37_5594"
                  x1="6003.86"
                  y1="3968.03"
                  x2="6003.86"
                  y2="6183.18"
                  gradientUnits="userSpaceOnUse"
                >
                  <stop offset="0.197917" stop-opacity="0" />
                  <stop offset="1" stop-color="#763CAC" />
                </linearGradient>
                <linearGradient
                  id="paint26_linear_37_5594"
                  x1="11387"
                  y1="4769.16"
                  x2="11387"
                  y2="5051.02"
                  gradientUnits="userSpaceOnUse"
                >
                  <stop stop-color="#693B93" stop-opacity="0.53" />
                  <stop offset="1" stop-color="#693B93" />
                </linearGradient>
                <linearGradient
                  id="paint27_linear_37_5594"
                  x1="11387"
                  y1="4880.63"
                  x2="11387"
                  y2="4939.61"
                  gradientUnits="userSpaceOnUse"
                >
                  <stop stop-color="#693B93" stop-opacity="0.53" />
                  <stop offset="1" stop-color="#693B93" />
                </linearGradient>
                <linearGradient
                  id="paint28_linear_37_5594"
                  x1="10503"
                  y1="4358"
                  x2="10503"
                  y2="4565"
                  gradientUnits="userSpaceOnUse"
                >
                  <stop stop-color="#693B93" stop-opacity="0.53" />
                  <stop offset="1" stop-color="#693B93" />
                </linearGradient>
                <linearGradient
                  id="paint29_linear_37_5594"
                  x1="11981"
                  y1="5474"
                  x2="11981"
                  y2="5780"
                  gradientUnits="userSpaceOnUse"
                >
                  <stop stop-color="#693B93" stop-opacity="0.53" />
                  <stop offset="1" stop-color="#693B93" />
                </linearGradient>
                <linearGradient
                  id="paint30_linear_37_5594"
                  x1="10420.7"
                  y1="6659.35"
                  x2="10420.7"
                  y2="6919.25"
                  gradientUnits="userSpaceOnUse"
                >
                  <stop stop-color="#693B93" stop-opacity="0.53" />
                  <stop offset="1" stop-color="#693B93" />
                </linearGradient>
                <linearGradient
                  id="paint31_linear_37_5594"
                  x1="11248.6"
                  y1="5745.76"
                  x2="11248.6"
                  y2="5954.48"
                  gradientUnits="userSpaceOnUse"
                >
                  <stop stop-color="#693B93" stop-opacity="0.53" />
                  <stop offset="1" stop-color="#693B93" />
                </linearGradient>
                <linearGradient
                  id="paint32_linear_37_5594"
                  x1="11248.6"
                  y1="5745.76"
                  x2="11248.6"
                  y2="5954.48"
                  gradientUnits="userSpaceOnUse"
                >
                  <stop stop-color="#693B93" stop-opacity="0.53" />
                  <stop offset="1" stop-color="#693B93" />
                </linearGradient>
                <linearGradient
                  id="paint33_linear_37_5594"
                  x1="9790.3"
                  y1="4508.64"
                  x2="9790.3"
                  y2="4611.93"
                  gradientUnits="userSpaceOnUse"
                >
                  <stop stop-color="#693B93" stop-opacity="0.53" />
                  <stop offset="1" stop-color="#693B93" />
                </linearGradient>
                <linearGradient
                  id="paint34_linear_37_5594"
                  x1="9790.35"
                  y1="4456.84"
                  x2="9790.35"
                  y2="4559.97"
                  gradientUnits="userSpaceOnUse"
                >
                  <stop stop-color="#693B93" stop-opacity="0.53" />
                  <stop offset="1" stop-color="#693B93" />
                </linearGradient>
                <linearGradient
                  id="paint35_linear_37_5594"
                  x1="9636.96"
                  y1="4456.72"
                  x2="9636.96"
                  y2="4560.09"
                  gradientUnits="userSpaceOnUse"
                >
                  <stop stop-color="#693B93" stop-opacity="0.53" />
                  <stop offset="1" stop-color="#693B93" />
                </linearGradient>
                <linearGradient
                  id="paint36_linear_37_5594"
                  x1="9636.96"
                  y1="4508.74"
                  x2="9636.96"
                  y2="4611.83"
                  gradientUnits="userSpaceOnUse"
                >
                  <stop stop-color="#693B93" stop-opacity="0.53" />
                  <stop offset="1" stop-color="#693B93" />
                </linearGradient>
                <linearGradient
                  id="paint37_linear_37_5594"
                  x1="1717.5"
                  y1="5334"
                  x2="1717.5"
                  y2="5571"
                  gradientUnits="userSpaceOnUse"
                >
                  <stop stop-color="#693B93" stop-opacity="0.53" />
                  <stop offset="1" stop-color="#693B93" />
                </linearGradient>
                <linearGradient
                  id="paint38_linear_37_5594"
                  x1="464.959"
                  y1="6263.89"
                  x2="464.959"
                  y2="6302.43"
                  gradientUnits="userSpaceOnUse"
                >
                  <stop stop-color="#693B93" stop-opacity="0.53" />
                  <stop offset="1" stop-color="#693B93" />
                </linearGradient>
                <linearGradient
                  id="paint39_linear_37_5594"
                  x1="465.991"
                  y1="6319.29"
                  x2="465.991"
                  y2="6538.51"
                  gradientUnits="userSpaceOnUse"
                >
                  <stop stop-color="#693B93" stop-opacity="0.53" />
                  <stop offset="1" stop-color="#693B93" />
                </linearGradient>
                <linearGradient
                  id="paint40_linear_37_5594"
                  x1="2229.04"
                  y1="3868"
                  x2="2229.04"
                  y2="4067.04"
                  gradientUnits="userSpaceOnUse"
                >
                  <stop stop-color="#693B93" stop-opacity="0.53" />
                  <stop offset="1" stop-color="#693B93" />
                </linearGradient>
                <linearGradient
                  id="paint41_linear_37_5594"
                  x1="1192.49"
                  y1="4580.14"
                  x2="1192.49"
                  y2="4782.01"
                  gradientUnits="userSpaceOnUse"
                >
                  <stop stop-color="#693B93" stop-opacity="0.53" />
                  <stop offset="1" stop-color="#693B93" />
                </linearGradient>
                <linearGradient
                  id="paint42_linear_37_5594"
                  x1="1875.54"
                  y1="6391.59"
                  x2="1875.54"
                  y2="6643.61"
                  gradientUnits="userSpaceOnUse"
                >
                  <stop stop-color="#693B93" stop-opacity="0.53" />
                  <stop offset="1" stop-color="#693B93" />
                </linearGradient>
                <clipPath id="clip0_37_5594">
                  <rect width="12089" height="7724" fill="white" />
                </clipPath>
              </defs>
            </svg>