<svg width="600" height="600" viewBox="0 0 600 600" fill="none" xmlns="http://www.w3.org/2000/svg">
<path d="M577.564 302.069C482.246 303.702 502.099 356.377 434.923 369.702C366.682 383.237 355.909 224.2 287.685 224.2C219.452 224.2 204.337 378.683 118.901 484.743L116.467 487.749L299.642 580.06L577.568 439.993V302.069H577.564Z" fill="#36A2EB"/>
<path d="M577.564 297.273C545.655 261.522 524.011 220.42 477.447 220.42C395.041 220.42 416.727 337.775 325.658 337.775C234.575 337.775 225.004 211.544 121.824 330.205C88.9475 368.013 62.4844 410.167 41.7017 450.063L299.634 580.056L577.56 439.989L577.564 297.273Z" fill="#FFCE56"/>
<path opacity="0.8" d="M21.7074 345.885C52.9773 270.29 66.4687 209.062 126.166 209.062C217.232 209.062 238.918 432.418 316.982 409.695C395.041 386.983 386.369 265.841 507.801 265.841C530.911 265.841 554.514 278.203 577.564 298.203V439.989L299.638 580.056L21.7031 439.989L21.7074 345.885Z" fill="#FE6184"/>
<path d="M299.42 597.619L4.1463 448.809V151.19L299.42 2.38086L594.699 151.19V448.809L299.42 597.619ZM38.8381 431.328L299.42 562.652L560.007 431.328V168.676L299.42 37.3511L38.8381 168.676V431.328Z" fill="#E7E9ED"/>
</svg>
