<svg width="600" height="600" viewBox="0 0 600 600" fill="none" xmlns="http://www.w3.org/2000/svg">
<mask id="mask0_651_4484" style="mask-type:luminance" maskUnits="userSpaceOnUse" x="0" y="0" width="600" height="600">
<path d="M600 0H0V600H600V0Z" fill="white"/>
</mask>
<g mask="url(#mask0_651_4484)">
<path d="M150 600.002C232.8 600.002 300.001 555.202 300.001 500.002V400.002H150C67.2 400.002 0 444.802 0 500.002C0 555.202 67.2 600.002 150 600.002Z" fill="#0ACF83"/>
<path d="M0 299.998C0 244.798 67.2 199.998 150 199.998H300.001V399.998H150C67.2 399.998 0 355.198 0 299.998Z" fill="#A259FF"/>
<path d="M0 99.9997C0 44.8 67.2 0 150 0H300.001V200H150C67.2 200 0 155.2 0 99.9997Z" fill="#F24E1E"/>
<path d="M300.001 0H450.002C532.802 0 600.002 44.8 600.002 99.9997C600.002 155.2 532.802 200 450.002 200H300.001V0Z" fill="#FF7262"/>
<path d="M600.002 299.998C600.002 355.198 532.802 399.998 450.002 399.998C367.202 399.998 300.001 355.198 300.001 299.998C300.001 244.798 367.202 199.998 450.002 199.998C532.802 199.998 600.002 244.798 600.002 299.998Z" fill="#1ABCFE"/>
</g>
</svg>
