<svg width="585" height="284" viewBox="0 0 585 284" fill="none" xmlns="http://www.w3.org/2000/svg">
<g filter="url(#filter0_d_1_2)">
<g filter="url(#filter1_d_1_2)">
<path d="M237.556 243C233.414 238.858 234.838 233.395 238.056 228.5C239.242 226.697 241.463 224.094 241.463 224.094L245.369 220.188L253.181 212.375L268.806 196.75L300.056 165.5L310.056 175.5L281.306 209.25L266.931 226.125L259.744 234.562L256.15 238.781C256.15 238.781 253.79 241.204 252.056 242.5C247.365 246.008 241.698 247.142 237.556 243Z" fill="white"/>
</g>
<g filter="url(#filter2_d_1_2)">
<circle cx="347" cy="133" r="46.5" stroke="white" stroke-width="21" shape-rendering="crispEdges"/>
</g>
<g filter="url(#filter3_d_1_2)">
<circle cx="346.556" cy="50" r="20" fill="white"/>
</g>
<g filter="url(#filter4_d_1_2)">
<circle cx="346.556" cy="133" r="56.5" stroke="white" stroke-width="7" shape-rendering="crispEdges"/>
</g>
<g filter="url(#filter5_d_1_2)">
<circle cx="346.556" cy="133" r="36.5" stroke="white" stroke-width="7" shape-rendering="crispEdges"/>
</g>
<g filter="url(#filter6_d_1_2)">
<path d="M336.556 143L346.556 100L356.556 143L346.556 153L336.556 143Z" fill="white"/>
</g>
</g>
<g filter="url(#filter7_d_1_2)">
<path d="M64.8161 119.375H140.416V148.625H64.8161V119.375ZM67.5161 206H31.0661V48.5H150.091V77.75H67.5161V206Z" fill="#2956F7"/>
<path d="M203.792 208.7C193.142 208.7 183.317 206.75 174.317 202.85C165.467 198.8 158.192 193.1 152.492 185.75L172.742 161.45C177.092 167.15 181.667 171.5 186.467 174.5C191.267 177.35 196.442 178.775 201.992 178.775C216.842 178.775 224.267 170.075 224.267 152.675V77.75H168.917V48.5H260.492V150.65C260.492 170.15 255.692 184.7 246.092 194.3C236.492 203.9 222.392 208.7 203.792 208.7ZM493.012 207.8C482.362 207.8 473.212 205.55 465.562 201.05C457.912 196.55 452.062 189.725 448.012 180.575C443.962 171.275 441.937 159.575 441.937 145.475C441.937 131.225 444.037 119.525 448.237 110.375C452.587 101.225 458.587 94.4 466.237 89.9C473.887 85.4 482.812 83.15 493.012 83.15C504.412 83.15 514.612 85.7 523.612 90.8C532.762 95.9 539.962 103.1 545.212 112.4C550.612 121.7 553.312 132.725 553.312 145.475C553.312 158.075 550.612 169.025 545.212 178.325C539.962 187.625 532.762 194.9 523.612 200.15C514.612 205.25 504.412 207.8 493.012 207.8ZM421.462 206V39.05H456.562V109.475L454.312 145.25L454.987 181.25V206H421.462ZM486.937 179C492.787 179 497.962 177.65 502.462 174.95C507.112 172.25 510.787 168.425 513.487 163.475C516.337 158.375 517.762 152.375 517.762 145.475C517.762 138.425 516.337 132.425 513.487 127.475C510.787 122.525 507.112 118.7 502.462 116C497.962 113.3 492.787 111.95 486.937 111.95C481.087 111.95 475.837 113.3 471.187 116C466.537 118.7 462.862 122.525 460.162 127.475C457.462 132.425 456.112 138.425 456.112 145.475C456.112 152.375 457.462 158.375 460.162 163.475C462.862 168.425 466.537 172.25 471.187 174.95C475.837 177.65 481.087 179 486.937 179Z" fill="white"/>
</g>
<defs>
<filter id="filter0_d_1_2" x="204" y="3" width="233.556" height="277.65" filterUnits="userSpaceOnUse" color-interpolation-filters="sRGB">
<feFlood flood-opacity="0" result="BackgroundImageFix"/>
<feColorMatrix in="SourceAlpha" type="matrix" values="0 0 0 0 0 0 0 0 0 0 0 0 0 0 0 0 0 0 127 0" result="hardAlpha"/>
<feOffset dy="4"/>
<feGaussianBlur stdDeviation="15.5"/>
<feComposite in2="hardAlpha" operator="out"/>
<feColorMatrix type="matrix" values="0 0 0 0 1 0 0 0 0 0.776167 0 0 0 0 0.341667 0 0 0 0.25 0"/>
<feBlend mode="normal" in2="BackgroundImageFix" result="effect1_dropShadow_1_2"/>
<feBlend mode="normal" in="SourceGraphic" in2="effect1_dropShadow_1_2" result="shape"/>
</filter>
<filter id="filter1_d_1_2" x="201" y="135.5" width="143.056" height="148.15" filterUnits="userSpaceOnUse" color-interpolation-filters="sRGB">
<feFlood flood-opacity="0" result="BackgroundImageFix"/>
<feColorMatrix in="SourceAlpha" type="matrix" values="0 0 0 0 0 0 0 0 0 0 0 0 0 0 0 0 0 0 127 0" result="hardAlpha"/>
<feOffset dy="4"/>
<feGaussianBlur stdDeviation="17"/>
<feComposite in2="hardAlpha" operator="out"/>
<feColorMatrix type="matrix" values="0 0 0 0 1 0 0 0 0 0.908333 0 0 0 0 0.0833333 0 0 0 0.25 0"/>
<feBlend mode="normal" in2="BackgroundImageFix" result="effect1_dropShadow_1_2"/>
<feBlend mode="normal" in="SourceGraphic" in2="effect1_dropShadow_1_2" result="shape"/>
</filter>
<filter id="filter2_d_1_2" x="256" y="46" width="182" height="182" filterUnits="userSpaceOnUse" color-interpolation-filters="sRGB">
<feFlood flood-opacity="0" result="BackgroundImageFix"/>
<feColorMatrix in="SourceAlpha" type="matrix" values="0 0 0 0 0 0 0 0 0 0 0 0 0 0 0 0 0 0 127 0" result="hardAlpha"/>
<feOffset dy="4"/>
<feGaussianBlur stdDeviation="17"/>
<feComposite in2="hardAlpha" operator="out"/>
<feColorMatrix type="matrix" values="0 0 0 0 1 0 0 0 0 0.908333 0 0 0 0 0.0833333 0 0 0 0.25 0"/>
<feBlend mode="normal" in2="BackgroundImageFix" result="effect1_dropShadow_1_2"/>
<feBlend mode="normal" in="SourceGraphic" in2="effect1_dropShadow_1_2" result="shape"/>
</filter>
<filter id="filter3_d_1_2" x="292.556" y="0" width="108" height="108" filterUnits="userSpaceOnUse" color-interpolation-filters="sRGB">
<feFlood flood-opacity="0" result="BackgroundImageFix"/>
<feColorMatrix in="SourceAlpha" type="matrix" values="0 0 0 0 0 0 0 0 0 0 0 0 0 0 0 0 0 0 127 0" result="hardAlpha"/>
<feOffset dy="4"/>
<feGaussianBlur stdDeviation="17"/>
<feComposite in2="hardAlpha" operator="out"/>
<feColorMatrix type="matrix" values="0 0 0 0 1 0 0 0 0 0.908333 0 0 0 0 0.0833333 0 0 0 0.25 0"/>
<feBlend mode="normal" in2="BackgroundImageFix" result="effect1_dropShadow_1_2"/>
<feBlend mode="normal" in="SourceGraphic" in2="effect1_dropShadow_1_2" result="shape"/>
</filter>
<filter id="filter4_d_1_2" x="252.556" y="43" width="188" height="188" filterUnits="userSpaceOnUse" color-interpolation-filters="sRGB">
<feFlood flood-opacity="0" result="BackgroundImageFix"/>
<feColorMatrix in="SourceAlpha" type="matrix" values="0 0 0 0 0 0 0 0 0 0 0 0 0 0 0 0 0 0 127 0" result="hardAlpha"/>
<feOffset dy="4"/>
<feGaussianBlur stdDeviation="17"/>
<feComposite in2="hardAlpha" operator="out"/>
<feColorMatrix type="matrix" values="0 0 0 0 1 0 0 0 0 0.908333 0 0 0 0 0.0833333 0 0 0 0.25 0"/>
<feBlend mode="normal" in2="BackgroundImageFix" result="effect1_dropShadow_1_2"/>
<feBlend mode="normal" in="SourceGraphic" in2="effect1_dropShadow_1_2" result="shape"/>
</filter>
<filter id="filter5_d_1_2" x="272.556" y="63" width="148" height="148" filterUnits="userSpaceOnUse" color-interpolation-filters="sRGB">
<feFlood flood-opacity="0" result="BackgroundImageFix"/>
<feColorMatrix in="SourceAlpha" type="matrix" values="0 0 0 0 0 0 0 0 0 0 0 0 0 0 0 0 0 0 127 0" result="hardAlpha"/>
<feOffset dy="4"/>
<feGaussianBlur stdDeviation="17"/>
<feComposite in2="hardAlpha" operator="out"/>
<feColorMatrix type="matrix" values="0 0 0 0 1 0 0 0 0 0.908333 0 0 0 0 0.0833333 0 0 0 0.25 0"/>
<feBlend mode="normal" in2="BackgroundImageFix" result="effect1_dropShadow_1_2"/>
<feBlend mode="normal" in="SourceGraphic" in2="effect1_dropShadow_1_2" result="shape"/>
</filter>
<filter id="filter6_d_1_2" x="302.556" y="70" width="88" height="121" filterUnits="userSpaceOnUse" color-interpolation-filters="sRGB">
<feFlood flood-opacity="0" result="BackgroundImageFix"/>
<feColorMatrix in="SourceAlpha" type="matrix" values="0 0 0 0 0 0 0 0 0 0 0 0 0 0 0 0 0 0 127 0" result="hardAlpha"/>
<feOffset dy="4"/>
<feGaussianBlur stdDeviation="17"/>
<feComposite in2="hardAlpha" operator="out"/>
<feColorMatrix type="matrix" values="0 0 0 0 1 0 0 0 0 0.908333 0 0 0 0 0.0833333 0 0 0 0.25 0"/>
<feBlend mode="normal" in2="BackgroundImageFix" result="effect1_dropShadow_1_2"/>
<feBlend mode="normal" in="SourceGraphic" in2="effect1_dropShadow_1_2" result="shape"/>
</filter>
<filter id="filter7_d_1_2" x="0.065918" y="12.0508" width="584.246" height="231.648" filterUnits="userSpaceOnUse" color-interpolation-filters="sRGB">
<feFlood flood-opacity="0" result="BackgroundImageFix"/>
<feColorMatrix in="SourceAlpha" type="matrix" values="0 0 0 0 0 0 0 0 0 0 0 0 0 0 0 0 0 0 127 0" result="hardAlpha"/>
<feOffset dy="4"/>
<feGaussianBlur stdDeviation="15.5"/>
<feComposite in2="hardAlpha" operator="out"/>
<feColorMatrix type="matrix" values="0 0 0 0 1 0 0 0 0 0.776167 0 0 0 0 0.341667 0 0 0 0.25 0"/>
<feBlend mode="normal" in2="BackgroundImageFix" result="effect1_dropShadow_1_2"/>
<feBlend mode="normal" in="SourceGraphic" in2="effect1_dropShadow_1_2" result="shape"/>
</filter>
</defs>
</svg>
