<svg width="600" height="600" viewBox="0 0 600 600" fill="none" xmlns="http://www.w3.org/2000/svg">
<path d="M588.679 273.288L326.718 11.3075C319.471 4.06709 309.646 0 299.401 0C289.157 0 279.332 4.06709 272.085 11.3075L217.687 65.6816L286.686 134.704C294.824 131.928 303.578 131.494 311.95 133.454C320.322 135.413 327.975 139.686 334.035 145.785C340.095 151.884 344.319 159.564 346.224 167.948C348.13 176.333 347.64 185.084 344.811 193.203L411.304 259.717C421.242 256.301 432.052 256.393 441.931 259.98C451.81 263.566 460.161 270.43 465.593 279.427C471.024 288.424 473.209 299.011 471.781 309.424C470.354 319.836 465.401 329.444 457.748 336.647C450.095 343.851 440.205 348.214 429.725 349.009C419.245 349.805 408.81 346.985 400.157 341.019C391.505 335.054 385.158 326.303 382.175 316.226C379.192 306.148 379.753 295.353 383.765 285.639L321.749 223.601V386.817C331.175 391.478 338.719 399.229 343.123 408.777C347.527 418.326 348.526 429.096 345.952 439.291C343.378 449.487 337.388 458.493 328.979 464.807C320.57 471.121 310.251 474.363 299.742 473.991C289.233 473.62 279.169 469.658 271.227 462.766C263.285 455.874 257.945 446.468 256.097 436.116C254.25 425.764 256.006 415.092 261.073 405.878C266.14 396.664 274.213 389.465 283.944 385.481V220.788C278.33 218.488 273.226 215.099 268.928 210.816C264.63 206.534 261.222 201.443 258.901 195.836C256.581 190.23 255.393 184.22 255.407 178.152C255.421 172.085 256.637 166.08 258.983 160.485L190.921 92.4468L11.3194 272.069C4.0717 279.317 0 289.147 0 299.396C0 309.646 4.0717 319.476 11.3194 326.724L273.28 588.681C280.528 595.928 290.358 600 300.608 600C310.858 600 320.689 595.928 327.936 588.681L588.679 327.943C595.928 320.691 600 310.857 600 300.604C600 290.35 595.928 280.516 588.679 273.264" fill="#DE4C36"/>
</svg>
