<svg width="600" height="600" viewBox="0 0 600 600" fill="none" xmlns="http://www.w3.org/2000/svg">
<path d="M54.6285 539.996L0 0H600L545.305 540.038L299.854 600L54.6285 539.996Z" fill="#E34E26"/>
<path d="M300 44.1387V554.132L498.477 505.648L545.239 44.1387H300Z" fill="#EF662A"/>
<path d="M111.771 110.375L132.028 310.656H392.515L383.774 396.56L299.903 416.543L216.191 396.589L210.594 341.43H135.155L145.943 447.76L299.885 485.437L454.022 447.76L474.686 244.434H200.766L193.888 176.611H481.267H481.497L488.229 110.375H111.771Z" fill="white"/>
<path d="M300 110.375H111.771L132.028 310.656H300V244.434H200.766L193.888 176.611H300V110.375Z" fill="#EBEBEB"/>
<path d="M300 416.514L299.903 416.543L216.191 396.589L210.594 341.431H135.155L145.943 447.76L299.885 485.438L300 485.409V416.514Z" fill="#EBEBEB"/>
</svg>
