<svg width="600" height="600" viewBox="0 0 600 600" fill="none" xmlns="http://www.w3.org/2000/svg">
<path d="M0 0H600V600H0V0Z" fill="#F7DF1E"/>
<path d="M157.762 501.404L203.678 473.616C212.536 489.322 220.594 502.61 239.923 502.61C258.45 502.61 270.131 495.363 270.131 467.172V275.458H326.516V467.969C326.516 526.369 292.284 552.951 242.34 552.951C197.234 552.951 171.051 529.59 157.761 501.399" fill="black"/>
<path d="M357.143 495.362L403.053 468.78C415.139 488.517 430.847 503.015 458.635 503.015C481.998 503.015 496.896 491.334 496.896 475.224C496.896 455.891 481.592 449.044 455.815 437.77L441.723 431.725C401.042 414.409 374.056 392.661 374.056 346.746C374.056 304.456 406.276 272.234 456.623 272.234C492.469 272.234 518.245 284.721 536.77 317.345L492.869 345.536C483.202 328.219 472.733 321.373 456.624 321.373C440.11 321.373 429.638 331.845 429.638 345.536C429.638 362.452 440.11 369.301 464.273 379.773L478.369 385.814C526.297 406.356 553.283 427.297 553.283 474.418C553.283 525.168 513.41 552.956 459.845 552.956C407.487 552.956 373.653 527.987 357.143 495.362Z" fill="black"/>
</svg>
