<svg width="1376" height="1366" viewBox="0 0 1376 1366" fill="none" xmlns="http://www.w3.org/2000/svg">
<path d="M448.122 4.18398C414.908 16.9892 407.528 41.1769 426.507 78.1698C467.102 157.847 607.338 163.064 659.004 86.7067C674.292 63.4675 677.983 60.6219 691.69 62.0447C704.343 62.9932 710.142 68.2102 721.741 87.1809C747.047 128.917 813.474 150.733 873.048 137.453C943.166 121.328 990.614 40.7026 947.384 11.7723C934.731 3.23544 925.241 1.81264 884.119 1.81264C842.47 2.2869 827.181 4.65824 774.988 20.3091C697.489 43.5482 677.983 43.5482 603.647 20.7834C541.437 1.81263 473.955 -5.30139 448.122 4.18398ZM584.141 27.8974C607.865 33.1143 634.752 40.7026 643.715 44.4968C661.112 53.0336 661.112 57.302 642.66 90.5008C633.698 106.152 628.426 109.472 597.848 118.008C578.869 123.225 557.253 127.494 550.4 127.494C531.948 127.494 478.7 109.946 468.156 99.9862C458.666 91.4494 442.85 43.5482 446.541 34.5371C453.922 16.5149 518.24 13.6693 584.141 27.8974ZM919.969 24.1032C936.84 31.2173 937.894 52.5593 921.551 82.4383C906.262 110.894 875.684 124.648 827.709 124.648C768.662 125.122 728.594 100.46 725.958 62.519C724.904 52.5593 728.594 48.2909 740.72 42.5997C783.951 23.629 891.5 12.2465 919.969 24.1032Z" fill="white"/>
<path d="M496.625 55.4037C487.135 62.5178 479.755 70.5803 479.755 73.9002C479.755 81.4885 518.768 105.202 520.876 99.0364C521.931 96.6651 516.132 89.5511 508.224 83.3856L493.989 72.4774L508.224 62.5178C521.404 53.0324 526.676 42.1242 518.24 42.1242C515.604 42.1242 506.115 48.2897 496.625 55.4037Z" fill="white"/>
<path d="M537.747 72.9516C534.057 90.0253 531.948 105.202 533.53 106.15C540.383 112.316 547.764 97.6135 551.455 71.5288C556.2 31.6903 546.183 32.6388 537.747 72.9516Z" fill="white"/>
<path d="M564.108 46.3926C564.108 48.7639 570.434 55.4037 578.342 61.0949L593.104 71.5288L578.342 82.9112C569.907 89.0767 564.108 96.665 565.162 99.0364C567.271 105.676 606.284 81.4884 606.284 73.4259C606.284 69.6317 598.376 61.5692 588.359 54.4551C568.852 41.1756 564.108 39.7528 564.108 46.3926Z" fill="white"/>
<path d="M832.981 53.9802C832.981 65.8369 835.617 75.3223 838.253 75.3223C841.416 75.3223 843.525 65.8369 843.525 53.9802C843.525 42.1235 841.416 32.6381 838.253 32.6381C835.617 32.6381 832.981 42.1235 832.981 53.9802Z" fill="white"/>
<path d="M809.785 52.5588C789.751 78.1693 809.258 108.522 845.107 108.522C858.815 108.522 866.195 105.677 871.995 98.0886C883.593 83.3862 882.539 59.6728 869.886 49.2389C855.651 37.8565 850.907 43.0734 861.978 58.25C877.794 79.5921 859.342 105.677 831.927 100.46C817.693 97.6143 810.312 71.0553 819.802 58.25C829.818 44.022 820.329 38.805 809.785 52.5588Z" fill="white"/>
<path d="M388.022 396.402C386.44 398.299 384.858 523.506 384.858 674.798L385.386 950.348L306.305 951.771C240.405 952.719 226.697 954.142 226.697 959.833C226.697 965.999 239.35 966.947 305.251 966.947H383.804L387.494 996.352C389.076 1012.95 390.13 1063.7 389.076 1109.23L387.494 1192.22L296.815 1193.17L205.609 1194.12V1161.4V1128.2H102.805H0V1140.06C0 1151.44 1.58161 1151.91 31.6322 1151.91C59.574 1151.91 63.2644 1152.86 63.2644 1161.4C63.2644 1169.93 59.574 1170.88 31.6322 1170.88H0V1224V1277.59L47.4483 1277.12L94.8966 1276.64V1308.89V1341.62H345.318H595.74V1201.71C595.74 1065.12 595.74 1061.8 585.196 1061.8C574.651 1061.8 574.651 1058.48 574.651 886.322C574.651 714.162 574.651 710.842 585.196 710.842C595.74 710.842 595.74 707.522 595.74 551.962V393.082H493.989C437.579 393.082 390.13 394.505 388.022 396.402ZM453.395 959.833C453.395 965.524 446.541 966.947 421.763 966.947C396.984 966.947 390.13 965.524 390.13 959.833C390.13 954.142 396.984 952.719 421.763 952.719C446.541 952.719 453.395 954.142 453.395 959.833Z" fill="white"/>
<path d="M934.203 403.043C874.102 412.054 801.348 441.458 778.678 465.646C730.703 516.867 713.832 569.511 718.577 656.302C719.632 684.758 723.849 719.854 727.54 734.082C735.975 766.806 779.733 824.667 816.11 851.7L844.052 872.094H793.44C747.046 872.094 743.356 872.568 743.356 881.579C743.356 886.796 746.519 891.065 750.209 891.539C753.373 891.539 800.821 891.539 855.65 891.065L954.237 890.59V930.903V971.69H1038.59H1122.94V1092.63V1213.57H1012.23H901.517L900.462 1133.89L898.881 1054.69L789.75 1053.26L680.091 1052.32V1066.54V1080.77H643.187H606.283V1095.95V1111.6L642.133 1111.13H677.455L679.037 1095.95C680.619 1080.77 681.146 1080.77 708.56 1080.77C732.812 1080.77 737.029 1082.19 739.665 1090.73C745.465 1109.7 738.611 1114.92 709.615 1113.02L682.727 1111.6L681.146 1162.35L679.564 1213.57H735.448H790.804V1289.45V1365.33H1033.32H1275.83V1289.45V1213.57H1304.83H1333.82V1068.92C1333.82 913.355 1334.88 920.944 1309.04 923.789C1304.83 924.263 1302.19 919.046 1302.19 910.035V895.807H1178.83C1080.77 895.807 1054.93 894.385 1052.82 889.642C1046.5 874.465 1057.57 872.094 1149.3 871.145L1241.56 869.723L1217.84 858.34C1204.66 852.175 1187.26 842.215 1178.3 836.05C1160.9 824.667 1041.75 772.498 1031.74 772.498C1016.97 772.023 950.547 730.762 935.258 712.265C906.262 678.118 905.207 613.143 933.676 580.893C956.346 554.808 1041.75 546.272 1086.57 565.717C1108.71 575.202 1136.12 614.092 1141.39 643.022L1145.08 663.416H1177.24C1215.73 662.942 1307.46 655.353 1311.15 652.033C1315.37 648.714 1302.72 583.265 1291.65 551.014C1263.71 469.914 1215.73 428.653 1124.52 407.785C1078.66 396.877 989.032 394.98 934.203 403.043Z" fill="white"/>
<path d="M1302.19 881.105C1302.19 888.694 1306.94 890.591 1332.77 892.013C1369.15 894.385 1376 892.488 1376 881.105C1376 873.043 1371.78 872.094 1339.1 872.094C1306.41 872.094 1302.19 873.043 1302.19 881.105Z" fill="white"/>
<path d="M1087.62 1095.95C1088.67 1107.81 1091.84 1112.07 1100.8 1113.02C1107.13 1113.97 1112.4 1112.55 1112.4 1109.7C1112.4 1106.86 1109.24 1104.49 1106.07 1104.49C1101.33 1104.49 1101.85 1102.59 1107.13 1099.74C1113.98 1095.95 1113.45 1095 1105.54 1095C1100.27 1095 1097.64 1092.63 1099.22 1090.26C1101.33 1087.41 1105.02 1086.46 1107.65 1087.89C1110.29 1089.78 1112.4 1088.36 1112.4 1085.99C1112.4 1083.14 1106.6 1080.77 1099.22 1080.77C1087.62 1080.77 1086.57 1082.67 1087.62 1095.95Z" fill="white"/>
<path d="M1105.02 1127.72C1102.91 1130.57 1097.64 1131.04 1092.89 1129.62C1086.04 1127.25 1084.98 1128.2 1088.15 1135.79C1090.78 1140.53 1093.95 1148.59 1095.53 1153.81C1097.64 1160.45 1099.75 1158.08 1105.02 1144.32C1111.87 1126.78 1111.87 1117.76 1105.02 1127.72Z" fill="white"/>
<path d="M1074.97 1176.57C1071.8 1187.96 1072.33 1204.56 1076.02 1206.45C1078.66 1208.35 1080.77 1204.56 1081.29 1198.39V1187.48L1086.57 1199.34C1090.78 1208.82 1092.89 1209.77 1096.58 1204.08C1100.27 1199.34 1101.85 1198.87 1101.85 1202.66C1101.85 1205.98 1104.49 1208.82 1107.13 1208.82C1110.29 1208.82 1112.4 1201.24 1112.4 1192.23C1112.4 1173.73 1102.38 1169.46 1097.64 1186.06L1095 1196.49L1090.78 1186.06C1087.09 1177.52 1076.55 1171.36 1074.97 1176.57Z" fill="white"/>
<path d="M1281.1 1242.02C1281.1 1260.52 1281.63 1261.47 1295.87 1260.05C1308.52 1258.62 1310.1 1256.73 1310.1 1242.02C1310.1 1227.32 1308.52 1225.42 1295.87 1224C1281.63 1222.58 1281.1 1223.53 1281.1 1242.02ZM1299.56 1246.77C1301.14 1249.14 1300.08 1251.51 1297.45 1251.51C1294.28 1251.51 1291.65 1249.14 1291.65 1246.77C1291.65 1243.92 1292.7 1242.02 1293.76 1242.02C1295.34 1242.02 1297.97 1243.92 1299.56 1246.77Z" fill="white"/>
<path d="M1281.1 1287.08C1281.1 1296.09 1283.21 1303.68 1286.38 1303.68C1289.01 1303.68 1290.07 1299.89 1287.96 1295.14C1285.32 1288.98 1287.43 1289.45 1297.97 1297.99C1305.36 1304.15 1312.74 1307.47 1313.79 1305.1C1319.06 1296.09 1318.54 1270.48 1313.26 1270.48C1310.1 1270.48 1307.46 1275.22 1306.94 1280.91V1291.82L1298.5 1280.91C1286.9 1265.74 1281.1 1268.11 1281.1 1287.08Z" fill="white"/>
<path d="M210.881 1358.22C210.881 1364.38 228.806 1365.33 342.682 1365.33C456.558 1365.33 474.483 1364.38 474.483 1358.22C474.483 1352.05 456.558 1351.1 342.682 1351.1C228.806 1351.1 210.881 1352.05 210.881 1358.22Z" fill="white"/>
</svg>
