<svg width="600" height="600" viewBox="0 0 600 600" fill="none" xmlns="http://www.w3.org/2000/svg">
<path d="M505.781 409.698C508.272 408.003 510.339 405.588 511.777 402.689C513.215 399.79 513.976 396.509 513.984 393.167L514.453 281.515C514.453 274.74 517.5 268.236 522.656 264.984L574.922 230.296C577.446 228.579 580.317 227.663 583.246 227.64C586.174 227.617 589.056 228.488 591.601 230.165C594.145 231.842 596.261 234.266 597.736 237.192C599.211 240.117 599.992 243.441 600 246.827V449.534C600 456.58 596.718 463.084 591.562 466.336L394.219 597.5C391.717 599.139 388.891 600 386.015 600C383.14 600 380.314 599.139 377.812 597.5L222.656 495.062C220.087 493.379 217.951 490.936 216.469 487.983C214.986 485.03 214.209 481.675 214.219 478.26V376.094H214.453V375.823L214.687 375.552L342.422 290.729V290.458H342.187V189.918C342.197 186.548 341.44 183.235 339.995 180.31C338.549 177.384 336.464 174.949 333.948 173.248C331.433 171.547 328.575 170.639 325.661 170.616C322.747 170.593 319.879 171.455 317.344 173.116L222.891 236.529C220.361 238.218 217.491 239.107 214.57 239.107C211.649 239.107 208.78 238.218 206.25 236.529L111.094 173.116C108.552 171.387 105.659 170.47 102.711 170.458C99.7619 170.447 96.8636 171.342 94.3123 173.051C91.761 174.76 89.6483 177.223 88.1905 180.187C86.7327 183.15 85.9821 186.508 86.0156 189.918V370.945C86.0249 374.314 85.2688 377.627 83.8229 380.553C82.377 383.478 80.292 385.913 77.7766 387.615C75.2612 389.316 72.4035 390.223 69.4895 390.247C66.5755 390.27 63.7073 389.408 61.1718 387.747L8.4375 352.517C5.93648 350.88 3.84478 348.522 2.36614 345.672C0.887494 342.823 0.0723151 339.579 0 336.257L0.46875 19.4594C0.435264 16.0502 1.18584 12.6919 2.64364 9.72831C4.10145 6.76471 6.21413 4.30221 8.76544 2.59287C11.3167 0.883537 14.2151 -0.0112474 17.1637 0.000106726C20.1124 0.0114609 23.0055 0.928546 25.5469 2.65749L206.016 122.71C208.573 124.449 211.486 125.367 214.453 125.367C217.42 125.367 220.333 124.449 222.891 122.71L403.125 2.92849C405.666 1.19954 408.559 0.28246 411.508 0.271105C414.457 0.259751 417.355 1.15454 419.906 2.86387C422.458 4.57321 424.57 7.0357 426.028 9.99931C427.486 12.9629 428.236 16.3212 428.203 19.7304V336.257C428.203 343.032 425.156 349.536 419.765 352.788L325.781 415.931C323.25 417.619 321.148 420.048 319.687 422.974C318.225 425.899 317.456 429.218 317.456 432.597C317.456 435.976 318.225 439.295 319.687 442.22C321.148 445.146 323.25 447.575 325.781 449.263L378.047 483.68C380.548 485.319 383.375 486.181 386.25 486.181C389.125 486.181 391.951 485.319 394.453 483.68L506.015 409.698H505.781ZM516.562 125.691C516.587 129.095 517.392 132.43 518.896 135.357C520.399 138.283 522.547 140.696 525.121 142.349C527.694 144.002 530.601 144.836 533.544 144.766C536.488 144.696 539.362 143.725 541.875 141.951L591.797 107.534C594.288 105.84 596.354 103.424 597.793 100.525C599.231 97.6268 599.992 94.3449 600 91.0031V20.2724C600.017 16.8456 599.242 13.4757 597.755 10.5112C596.268 7.54666 594.124 5.09502 591.543 3.40971C588.962 1.72439 586.039 0.866564 583.076 0.924892C580.113 0.983221 577.217 1.95559 574.687 3.74149L525 38.4293C522.542 40.1002 520.497 42.473 519.061 45.3202C517.625 48.1674 516.845 51.3935 516.797 54.6893V125.691H516.562Z" fill="#007FFF"/>
</svg>
