<svg width="600" height="600" viewBox="0 0 600 600" fill="none" xmlns="http://www.w3.org/2000/svg">
<path d="M141.627 156.539H254.784V171.461H152V283.654H248.666V298.577H152V421.654H255.854V436.577H141.627V156.539ZM264.902 156.539H276.927L330.214 279.615L384.664 156.539L458.769 0L337.075 292.538L399.876 436.5H387.269L330.284 305.577L272.996 436.577H260.738L323.911 292.615L264.925 156.539H264.902ZM404.225 171.461V156.539H533.176V171.461H473.794V436.615H463.421V171.423H404.249L404.225 171.461ZM0 156.539H12.9787L191.82 600L117.925 436.577L10.932 177.692L10.4667 436.577H0V156.539ZM532.175 417.192C531.427 417.215 530.692 416.869 530.063 416.199C529.435 415.528 528.941 414.563 528.645 413.427C528.349 412.291 528.264 411.034 528.402 409.818C528.539 408.602 528.892 407.481 529.417 406.598C529.941 405.715 530.612 405.11 531.345 404.86C532.077 404.61 532.838 404.727 533.531 405.195C534.224 405.663 534.816 406.461 535.234 407.488C535.651 408.515 535.874 409.724 535.874 410.961C535.886 411.776 535.8 412.586 535.619 413.343C535.439 414.101 535.168 414.791 534.823 415.372C534.478 415.953 534.066 416.414 533.611 416.727C533.156 417.039 532.668 417.198 532.175 417.192ZM542.363 400.769H547.922C547.923 401.928 548.069 403.074 548.351 404.134C548.633 405.195 549.045 406.147 549.561 406.931C550.076 407.716 550.685 408.315 551.348 408.69C552.01 409.066 552.713 409.211 553.411 409.115C557.017 409.115 559.063 405.538 559.063 398.769V356.077H564.715V398.808C564.715 410.962 560.482 418.038 553.458 418.038C546.875 418.038 542.363 411.269 542.363 400.885V400.769ZM572.112 400.231H577.717C578.206 405.962 581.578 409.615 586.44 409.615C591.301 409.615 594.301 405.769 594.301 400.346C594.301 395.731 592.185 392.961 587.324 391.077L582.672 389.192C576.089 386.654 573.089 381.5 573.089 372.5C573.089 361.731 578.392 354.577 586.323 354.577C593.72 354.577 599.116 361.731 599.442 371.923H593.952C593.417 366.346 590.51 362.885 586.254 362.885C581.997 362.885 578.811 366.462 578.811 371.885C578.811 376.192 580.718 378.654 585.463 380.5L589.463 382.115C596.93 385 600 390.039 600 399.115C600 410.654 594.604 417.923 586.044 417.923C577.973 417.923 572.554 411 572.089 400.192L572.112 400.231Z" fill="white"/>
</svg>
