<svg width="600" height="600" viewBox="0 0 600 600" fill="none" xmlns="http://www.w3.org/2000/svg">
<path d="M493.32 194.472C486.934 192.01 480.495 189.729 474.007 187.631C475.097 182.626 476.1 177.681 476.991 172.824C491.611 93.0552 482.053 28.7921 449.407 7.63366C418.106 -12.6502 366.916 8.50034 315.218 59.0705C310.123 64.0633 305.141 69.2 300.277 74.4757C297.02 70.9675 293.706 67.5275 290.337 64.1573C236.154 10.0862 181.845 -12.7029 149.234 8.51615C117.961 28.8633 108.701 89.2751 121.863 164.873C123.173 172.361 124.651 179.809 126.298 187.212C118.61 189.667 111.192 192.28 104.093 195.062C40.568 219.956 0 258.967 0 299.432C0 341.225 43.5516 383.144 109.716 408.562C115.08 410.614 120.488 412.516 125.937 414.265C124.167 422.238 122.596 430.266 121.226 438.337C108.677 512.624 118.477 571.608 149.665 591.826C181.877 612.705 235.943 591.246 288.586 539.522C292.855 535.317 297.029 530.993 301.106 526.554C306.374 532.266 311.782 537.813 317.325 543.187C368.32 592.506 418.683 612.421 449.841 592.147C482.023 571.207 492.483 507.843 478.903 430.751C477.833 424.711 476.634 418.701 475.305 412.727C479.102 411.462 482.829 410.161 486.462 408.807C555.246 383.194 600 341.783 600 299.432C600 258.819 558.122 219.545 493.32 194.472ZM478.402 381.463C475.12 382.683 471.755 383.861 468.323 385.006C460.73 357.987 450.483 329.257 437.941 299.572C449.909 270.595 459.762 242.231 467.142 215.388C473.28 217.385 479.236 219.49 484.978 221.71C540.502 243.196 574.369 274.957 574.369 299.432C574.369 325.501 537.792 359.343 478.402 381.463ZM453.759 436.346C459.764 470.433 460.62 501.254 456.642 525.35C453.07 547.001 445.884 561.434 436.997 567.217C418.09 579.519 377.653 563.529 334.043 521.349C328.888 516.352 323.857 511.196 318.956 505.885C335.864 485.104 352.76 460.945 369.251 434.112C398.257 431.22 425.66 426.488 450.511 420.032C451.734 425.582 452.822 431.025 453.759 436.346ZM204.553 565.091C186.08 572.422 171.366 572.633 162.471 566.869C143.545 554.601 135.677 507.239 146.409 443.711C147.685 436.204 149.146 428.738 150.79 421.323C175.366 427.434 202.57 431.828 231.645 434.478C248.248 460.734 265.631 484.866 283.151 505.999C279.428 510.048 275.616 513.993 271.72 517.832C248.44 540.703 225.113 556.93 204.553 565.091ZM118.008 381.303C88.7508 370.062 64.5891 355.455 48.0281 339.515C33.1453 325.193 25.6336 310.97 25.6336 299.432C25.6336 274.875 58.2047 243.554 112.53 222.266C119.123 219.685 126.023 217.248 133.184 214.961C140.693 242.411 150.541 271.111 162.427 300.133C150.387 329.584 140.398 358.743 132.816 386.516C127.842 384.915 122.905 383.176 118.008 381.303ZM147.019 159.339C135.743 94.5699 143.231 45.7121 162.077 33.4495C182.149 20.3888 226.535 39.0105 273.319 85.7003C276.369 88.7518 279.371 91.8652 282.321 95.0388C264.888 116.079 247.664 140.032 231.209 166.133C202.99 169.072 175.978 173.793 151.144 180.118C149.614 173.233 148.238 166.302 147.019 159.339ZM405.832 231.17C399.966 219.782 393.883 208.537 387.586 197.444C406.73 200.165 425.072 203.776 442.296 208.191C437.126 226.821 430.68 246.296 423.094 266.264C417.548 254.438 411.793 242.738 405.832 231.17ZM300.288 115.628C312.11 130.025 323.951 146.096 335.597 163.535C311.972 162.281 288.307 162.276 264.682 163.519C276.34 146.241 288.281 130.191 300.288 115.628ZM194.067 231.368C188.18 242.842 182.533 254.47 177.129 266.24C169.666 246.344 163.28 226.779 158.065 207.886C175.184 203.581 193.439 200.062 212.461 197.391C206.094 208.552 199.961 219.883 194.067 231.368ZM213.007 403.523C193.355 401.057 174.825 397.719 157.711 393.531C163.008 374.301 169.535 354.32 177.159 333.996C182.585 345.776 188.256 357.41 194.168 368.89C200.248 380.692 206.543 392.251 213.007 403.523ZM300.996 485.264C288.846 470.533 276.729 454.235 264.895 436.707C276.384 437.213 288.096 437.471 300 437.471C312.23 437.471 324.319 437.162 336.218 436.567C324.534 454.412 312.738 470.734 300.996 485.264ZM423.335 332.958C431.355 353.506 438.115 373.381 443.482 392.282C426.087 396.745 407.304 400.338 387.513 403.006C393.855 391.707 399.996 380.267 405.933 368.692C411.969 356.928 417.771 345.013 423.335 332.958ZM383.73 354.299C374.642 372.044 365.042 389.453 354.947 406.497C336.66 407.953 318.333 408.676 300 408.665C281.327 408.665 263.166 408.012 245.677 406.737C235.318 389.732 225.535 372.293 216.349 354.457C207.207 336.715 198.669 318.59 190.751 300.12C198.649 281.645 207.163 263.511 216.274 245.756L216.272 245.759C225.38 227.999 235.084 210.635 245.365 193.703C263.208 192.186 281.505 191.395 299.998 191.395C318.574 191.395 336.898 192.193 354.736 193.721C364.913 210.628 374.555 227.932 383.646 245.603C392.788 263.319 401.414 281.365 409.512 299.711C401.497 318.245 392.898 336.453 383.73 354.299ZM436.605 32.5908C456.696 45.6146 464.51 98.1341 451.887 167.007C451.08 171.401 450.176 175.877 449.191 180.416C424.296 173.956 397.266 169.154 368.965 166.169C352.479 139.782 335.395 115.792 318.246 95.023C322.741 90.1536 327.342 85.4105 332.046 80.798C376.343 37.4721 417.743 20.3651 436.605 32.5908ZM300 239.213C329.59 239.213 353.578 266.174 353.578 299.432C353.578 332.69 329.59 359.652 300 359.652C270.41 359.652 246.422 332.69 246.422 299.432C246.422 266.174 270.41 239.213 300 239.213Z" fill="#00D8FF"/>
</svg>
