<svg width="600" height="600" viewBox="0 0 600 600" fill="none" xmlns="http://www.w3.org/2000/svg">
<path d="M415.737 419.035C437.878 416.621 454.676 396.515 453.912 372.385C453.15 348.257 434.06 328.954 411.155 328.954H409.629C385.957 329.759 367.634 350.669 368.398 375.602C369.162 387.667 373.741 398.122 380.613 405.361C354.654 459.249 314.951 498.659 255.396 531.634C214.929 554.155 172.936 562.198 130.943 556.569C96.5836 551.743 69.8601 535.658 53.0601 509.114C28.6289 469.705 26.339 427.076 46.9547 384.45C61.4625 353.886 84.3656 331.366 98.8734 320.106C95.8195 309.65 91.2375 291.957 88.9476 279.089C-21.7641 363.539 -10.3102 477.748 23.2851 531.634C48.4804 571.851 99.6375 596.783 156.138 596.783C171.408 596.783 186.677 595.174 201.949 591.154C299.681 571.046 373.744 509.919 415.737 419.035ZM550.118 319.303C492.089 247.721 406.575 208.312 308.843 208.312H296.627C289.755 193.835 275.248 184.182 259.214 184.182H257.686C234.019 184.986 215.695 205.897 216.457 230.832C217.221 254.959 236.309 274.263 259.214 274.263H260.74C277.537 273.458 292.045 262.198 298.153 246.916H311.897C369.926 246.916 424.898 264.61 474.53 299.195C512.705 325.737 540.192 360.322 555.462 402.144C568.441 435.924 567.677 468.9 553.934 497.051C532.556 539.678 496.671 563.003 449.332 563.003C418.791 563.003 389.777 553.35 374.505 546.111C366.108 554.155 350.836 567.022 340.146 575.068C372.98 591.152 406.575 600 438.642 600C511.941 600 566.151 557.371 586.767 514.745C608.909 468.095 607.38 387.667 550.118 319.303ZM162.246 432.705C163.01 456.835 182.098 476.136 205.003 476.136H206.531C230.201 475.333 248.524 454.42 247.76 429.488C246.998 405.358 227.909 386.057 205.003 386.057H203.477C201.949 386.057 199.657 386.057 198.134 386.859C166.828 332.168 153.848 272.653 158.43 208.309C161.482 160.052 176.754 118.228 203.477 83.6426C225.619 53.8838 268.376 39.4068 297.391 38.6045C378.323 36.9948 412.68 143.16 414.973 185.789C424.898 188.201 441.696 193.832 453.15 197.854C443.986 67.5609 367.634 0 294.337 0C225.619 0 162.246 52.2791 137.048 129.491C101.927 232.439 124.833 331.366 167.59 409.382C163.774 415.011 161.482 423.857 162.246 432.705Z" fill="#764ABC"/>
</svg>
