<svg width="600" height="600" viewBox="0 0 600 600" fill="none" xmlns="http://www.w3.org/2000/svg">
<g clip-path="url(#clip0_651_4446)">
<path d="M598.015 88.5712L316.165 590.605C310.346 600.971 295.395 601.032 289.489 590.717L2.051 88.6178C-4.38494 77.3789 5.26428 63.7634 18.0518 66.042L300.204 116.276C302.004 116.597 303.847 116.593 305.646 116.267L581.897 66.112C594.642 63.7984 604.336 77.3089 598.015 88.5712Z" fill="url(#paint0_linear_651_4446)"/>
<path d="M434.606 0.147334L226.031 40.8586C224.365 41.1838 222.854 42.0515 221.736 43.3253C220.619 44.599 219.958 46.2065 219.858 47.8952L207.028 263.746C206.958 264.93 207.165 266.114 207.634 267.204C208.103 268.294 208.821 269.26 209.73 270.025C210.639 270.791 211.715 271.334 212.872 271.613C214.03 271.892 215.236 271.899 216.396 271.632L274.467 258.283C279.9 257.034 284.81 261.801 283.692 267.243L266.44 351.399C265.28 357.063 270.616 361.905 276.169 360.224L312.037 349.371C317.597 347.69 322.941 352.546 321.764 358.214L294.347 490.403C292.631 498.673 303.673 503.181 308.276 496.093L311.353 491.358L481.312 153.491C484.16 147.834 479.25 141.383 473.016 142.583L413.238 154.074C407.623 155.153 402.844 149.942 404.428 144.47L443.442 9.74967C445.029 4.26329 440.229 -0.949942 434.606 0.147334Z" fill="url(#paint1_linear_651_4446)"/>
</g>
<defs>
<linearGradient id="paint0_linear_651_4446" x1="1.21055e-06" y1="66" x2="212.5" y2="411.5" gradientUnits="userSpaceOnUse">
<stop stop-color="#44CDFF"/>
<stop offset="1" stop-color="#BD34FE"/>
</linearGradient>
<linearGradient id="paint1_linear_651_4446" x1="344.578" y1="0" x2="344.578" y2="499.61" gradientUnits="userSpaceOnUse">
<stop stop-color="#FFDD36"/>
<stop offset="1" stop-color="#F69B1E"/>
</linearGradient>
<clipPath id="clip0_651_4446">
<rect width="600" height="600" fill="white"/>
</clipPath>
</defs>
</svg>
