<svg width="600" height="600" viewBox="0 0 600 600" fill="none" xmlns="http://www.w3.org/2000/svg">
<g clip-path="url(#clip0_650_4422)">
<path d="M142.538 41.4768H461.939L555.532 164.698L290.714 538.75L44.4305 164.701L142.538 41.4768Z" fill="#18253F"/>
<path d="M354.907 450.402H229.718L173.177 363.109L333.406 363.103L333.41 350.719H424.999L354.907 450.402Z" fill="#274D82"/>
<path d="M528.656 129.559L183.23 381.056L138.169 309.969L405.588 115.259L400.676 104.527L471.905 52.667L528.656 129.559ZM343.584 41.601L84.211 230.447L43.8727 166.945L217.533 40.5015L343.584 41.601Z" fill="#274D82"/>
<g filter="url(#filter0_d_650_4422)">
<path d="M474.422 4.46301H130.383L4.6875 162.163L290.063 595.534L312.83 563.317L595.312 163.646L474.422 4.46301ZM461.855 41.5921L555.23 164.548L290.855 538.611L44.5312 164.548L142.535 41.5921H461.855V41.5921Z" fill="black"/>
</g>
<path d="M474.422 4.46301H130.383L4.6875 162.163L290.063 595.534L312.83 563.317L595.312 163.646L474.422 4.46301ZM461.855 41.5921L555.23 164.548L290.855 538.611L44.5312 164.548L142.535 41.5921H461.855V41.5921Z" fill="#3068B7"/>
</g>
<defs>
<filter id="filter0_d_650_4422" x="1.6875" y="1.46301" width="598.625" height="599.071" filterUnits="userSpaceOnUse" color-interpolation-filters="sRGB">
<feFlood flood-opacity="0" result="BackgroundImageFix"/>
<feColorMatrix in="SourceAlpha" type="matrix" values="0 0 0 0 0 0 0 0 0 0 0 0 0 0 0 0 0 0 127 0" result="hardAlpha"/>
<feOffset dx="1" dy="1"/>
<feGaussianBlur stdDeviation="2"/>
<feColorMatrix type="matrix" values="0 0 0 0 0 0 0 0 0 0 0 0 0 0 0 0 0 0 0.36 0"/>
<feBlend mode="normal" in2="BackgroundImageFix" result="effect1_dropShadow_650_4422"/>
<feBlend mode="normal" in="SourceGraphic" in2="effect1_dropShadow_650_4422" result="shape"/>
</filter>
<clipPath id="clip0_650_4422">
<rect width="600" height="600" fill="white"/>
</clipPath>
</defs>
</svg>
